<?xml version="1.0" encoding="UTF-8"?>
<svg id="Layer_1" xmlns="http://www.w3.org/2000/svg" version="1.1" viewBox="0 0 220.05 255.06">
  <!-- Generator: Adobe Illustrator 30.3.0, SVG Export Plug-In . SVG Version: 2.1.3 Build 182)  -->
  <defs>
    <style>
      .st0 {
        stroke-width: .23px;
      }

      .st0, .st1, .st2 {
        fill: none;
      }

      .st0, .st2 {
        stroke: #ff8c9c;
        stroke-miterlimit: 10;
      }

      .st1 {
        stroke: #502750;
        stroke-linecap: round;
        stroke-linejoin: round;
        stroke-width: .81px;
      }

      .st3 {
        fill: #ffede3;
      }

      .st4 {
        fill: #ffa861;
      }

      .st5 {
        opacity: .26;
      }

      .st5, .st6, .st7 {
        isolation: isolate;
      }

      .st5, .st8 {
        fill: #ffa8de;
      }

      .st9 {
        fill: #7282ff;
      }

      .st6 {
        opacity: .46;
      }

      .st6, .st10 {
        fill: #bd70ea;
      }

      .st11 {
        fill: #ff8c9c;
      }

      .st2 {
        stroke-width: .21px;
      }

      .st12 {
        fill: #fff;
      }

      .st13, .st7 {
        fill: #502750;
      }

      .st14 {
        fill: #ffcabf;
      }

      .st15 {
        fill: #fde8cf;
      }

      .st16 {
        opacity: .44;
      }

      .st17 {
        opacity: .42;
      }

      .st7 {
        opacity: .34;
      }

      .st18 {
        fill: #000042;
      }
    </style>
  </defs>
  <g>
    <path class="st12" d="M944.66,152.22c-3.45,0-6.24-2.8-6.24-6.24V35.97c0-11.47,2.03-22.65,6.02-33.25,4.73-12.65,12.35-24.41,22.01-33.98,14.13-14.01,31.94-23.08,51.49-26.21,4.93-.8,10.03-1.21,15.12-1.21,3.24,0,6.45.16,9.55.48,19.86,1.98,38.3,10.07,53.29,23.4,1.35,1.19,2.73,2.49,4.09,3.84,12.57,12.57,21.31,28.32,25.29,45.56,1.61,6.94,2.43,14.13,2.43,21.36v41.03c.24.98.23,1.99,0,2.96v66.02c0,3.45-2.8,6.24-6.24,6.24h-176.79Z"/>
    <g>
      <path class="st18" d="M1121.48,35.97v110.01h-176.79V35.97c0-10.93,1.98-21.39,5.62-31.05,4.51-12.05,11.58-22.85,20.57-31.74,12.8-12.7,29.47-21.5,48.08-24.48,4.6-.75,9.32-1.13,14.13-1.13,3.01,0,5.97.15,8.91.45,19.01,1.89,36.26,9.83,49.78,21.86,1.31,1.15,2.58,2.35,3.82,3.59,11.5,11.5,19.84,26.15,23.62,42.55,1.49,6.41,2.27,13.09,2.27,19.96Z"/>
      <g>
        <path class="st8" d="M982.33,132.8c-1.11,1.75-2.64,3.31-4.6,3.99-4.21,1.47-8.65-1.57-11.56-4.94-2.92-3.37-5.46-7.44-9.61-9.1-3.71-1.48-7.86-.68-11.88-.62v-22.48c2.23-.23,4.52-.2,6.71-.1l4.01.36c8.45.9,17.11,3.55,23.07,9.6,5.97,6.06,8.4,16.13,3.85,23.3Z"/>
        <path class="st10" d="M988,70.37c-1.73,5.59-3.17,12.02-.11,17.01,1.88,3.07,5.39,5.08,8.99,5.15,3.6.07,7.18-1.8,9.18-4.79,3.25-4.87,2.22-11.75,5.7-16.46,2.65-3.59,7.23-5.01,11.24-6.98,4-1.97,8.07-5.48,7.73-9.93-.16-2.06-1.28-3.95-2.69-5.46-5.79-6.22-16.15-6.44-23.51-2.2-7.37,4.24-12.12,11.94-15.15,19.88l-1.37,3.78Z"/>
        <path class="st10" d="M1041.99-51.99c-.85,3.63-1.2,7.51-3.26,10.6-2,2.99-5.58,4.86-9.18,4.79-3.6-.07-7.11-2.08-8.98-5.15-1.75-2.86-2.03-6.18-1.62-9.54,4.6-.75,9.32-1.13,14.13-1.13,3.01,0,5.98.15,8.91.45Z"/>
        <path class="st8" d="M1119.21,16c-1.44.86-3.07,1.43-4.74,1.36-4.45-.19-7.47-4.63-8.95-8.85-1.49-4.21-2.36-8.92-5.61-11.98-4.27-4.01-11.23-3.8-15.67-7.6-2.74-2.34-4.17-6.12-3.67-9.69.49-3.56,2.9-6.81,6.17-8.32,1.61-.74,3.31-1.06,5.04-1.07,1.31,1.15,2.58,2.35,3.82,3.59,11.5,11.5,19.84,26.15,23.61,42.55Z"/>
        <path class="st4" d="M987.15-4.6c-2.48,3.71-7.84,3.98-12.21,3.06-4.36-.92-8.85-2.62-13.15-1.43-4.5,1.25-7.6,5.35-11.49,7.89,4.51-12.05,11.58-22.85,20.57-31.74.12,0,.24.02.36.04,8.41,1.21,16.43,7.75,17.16,16.23.18,2.06-.1,4.24-1.25,5.95Z"/>
      </g>
      <g>
        <g>
          <g>
            <path class="st13" d="M1020.93,28.47l-55.5,18c-.4.13-.82-.09-.95-.49-.13-.39.08-.81.46-.94l54.96-19.58c.83-.29,1.74.14,2.03.96.29.83-.14,1.74-.96,2.03-.01,0-.03.01-.04.02Z"/>
            <path class="st4" d="M965.66,45.42c-.03.35-.09.7-.19,1.03-.58,2.25-2.26,4.19-4.39,5.11-.31.13-.63.25-.97.33-3.13.83-6.64-.38-9.61.92-.23-1.95.38-4.02,1.69-5.49,1.08-1.21,2.5-2.08,4.02-2.64.32-.13.66-.25.99-.34,2.53-.74,5.53-.63,7.82.68.22.13.44.26.64.41Z"/>
          </g>
          <path class="st10" d="M961.08,51.57c-.31.13-.63.25-.97.33-3.13.83-6.64-.38-9.61.92-.23-1.95.38-4.02,1.69-5.49,1.08-1.21,2.5-2.08,4.02-2.64.35.86.04,1.88-.38,2.74,2.34.35,4.74,1.87,5.25,4.14Z"/>
        </g>
        <g>
          <polygon class="st11" points="1054.88 93.54 1041.56 105.11 1037.65 108.5 1007.4 134.81 994.11 125.6 1023.06 92.49 1030.1 84.45 1033.61 80.43 1054.88 93.54"/>
          <polygon class="st13" points="1045.31 90.88 1041.56 105.11 1037.65 108.5 1023.06 92.49 1030.1 84.45 1045.31 90.88"/>
        </g>
        <polygon class="st14" points="1042.47 40.92 1021.04 79.01 1051.68 96.19 1068.69 51.38 1042.47 40.92"/>
        <g>
          <path class="st14" d="M1121.65,78.48l-.18.13v67.36h-84.15c0-.09,0-.21,0-.32,0-.19,0-.41,0-.65.05-4.74.23-20.07.35-36.54.03-4.76.07-9.61.09-14.33h0c0-1.93.02-3.85.02-5.71,0-.23,0-.47,0-.7,0-1.59,0-3.16,0-4.69v-1.6c.02-4.76,0-9.1-.02-12.69h0c-.02-3.66-.06-6.53-.13-8.33-.23-5.64.84-11.52,3.03-16.36,0,0,0-.03.02-.04,2.93-6.55,7.89-11.17,14.37-10.74,0,0,6.32,1.63,11.46-.32,5.13-1.95,11.82-10.02,11.82-10.02,0,0,17.58.99,28.21,7.9,6.06,3.93,11.19,8.91,14.87,16.49v30.93l.18.24Z"/>
          <path class="st13" d="M1040.02,59.2c-.2,4.14-.38,7.52-.54,10.34,0,.07-.01.15-.01.21-.32,5.16-.59,8.41-.8,10.8-.08.99-.16,1.85-.21,2.66,0,.07,0,.13-.02.2-.12,1.56-.18,2.82-.2,4.33v.71s0,.21,0,.21c0,.65,0,1.34,0,2.12v.1c0,.93.02,2.04.02,3.31v.27c0,3.17,0,7.5-.06,13.58v.32c-.12,14.39-.4,31.69-.47,36.65,0,.24,0,.46,0,.66v.3h-.75v-.32c0-.2,0-.42,0-.65.08-4.92.35-21.99.47-36.31v-.42c.06-6.38.08-10.85.06-14.09v-.26c0-1.17,0-2.19-.02-3.05v-.09c0-.86-.02-1.64,0-2.34v-.71s0-.16,0-.16c.02-1.53.08-2.82.22-4.42,0-.06,0-.13.02-.2.03-.49.07-.99.11-1.53.03-.3.05-.61.08-.95.21-2.41.49-5.72.8-10.99,0-.06,0-.12,0-.2.17-2.77.33-6.09.53-10.14,0-.2.19-.36.4-.35.2,0,.36.19.35.39Z"/>
        </g>
        <g>
          <g>
            <path class="st11" d="M1067.44,74.75l-12.78,4.26-42.88-26.17-9.97,14.03s49.06,39.36,57.26,39.52c8.2.16,26.98-9.94,26.98-9.94l-18.61-21.69Z"/>
            <path class="st11" d="M1007.25,71.06s-4.07-2.97-5.92-4.2c-2.13-1.42-5.44-1.12-8.52-2.9-2.71-1.56-6.2-4.43-9.55-4.9s-11.14,2.15-11.5.49c-.35-1.66,9.73-5.96,11.74-6.88,2.05-.95-.24-.32-.24-.32,0,0-16,7.01-17.05,5.05-1.05-1.96,6.89-7.1,6.89-7.1,0,0-9.15,3.99-9.99,2.66s2.92-5.65,8.99-8.43c6.07-2.78,9.7-5.06,9.4-5.23-.53-.3-17.52,7.37-18.28,5.63-.76-1.74,8.32-7.55,14.12-9.38,5.8-1.83,8.91-3.63,13.88.32,4.33,3.44,22.8,18.3,22.8,18.3l-6.19,15.89-.59,1.01Z"/>
            <path class="st13" d="M964.5,53.51c-.35,0-.65-.05-.9-.15-.37-.15-.62-.39-.75-.74-.97-2.55,6.58-6.86,9.88-8.59,2.68-1.41,4.79-2.6,6.3-3.49-.38.13-.8.28-1.25.43-.6.2-1.66.64-2.89,1.14-7.44,3.04-11.33,4.34-11.96,2.95-.12-.26-.11-.56.01-.9.85-2.22,7.58-6.21,11.91-8.13,4.81-2.13,10.85-2.7,10.91-2.71.19-.02.34.12.36.3.02.18-.12.34-.3.36-.06,0-6,.57-10.7,2.65-4.78,2.12-10.87,5.97-11.56,7.76-.06.16-.07.29-.03.39.48,1.05,8.2-2.1,11.1-3.29,1.29-.53,2.31-.95,2.92-1.15,2.74-.93,4.31-1.55,4.32-1.55.15-.06.34,0,.42.16.08.15.03.34-.11.43-.03.02-3.18,2.1-9.16,5.24-7.21,3.79-10,6.64-9.57,7.77.06.17.18.28.38.36.56.22,2.21.27,6.88-1.98,2.78-1.34,13.02-5.78,13.12-5.82.17-.07.36,0,.43.17.07.17,0,.36-.17.43-.1.04-10.33,4.48-13.1,5.81-2.97,1.43-5.15,2.14-6.52,2.14Z"/>
            <path class="st13" d="M967.58,58.3c-.35,0-.66-.04-.91-.13-.36-.12-.61-.34-.74-.63-1.24-2.74,6.92-7.57,7.86-8.12.16-.09.36-.04.45.12.09.16.04.36-.12.45-3.33,1.93-8.33,5.62-7.58,7.27.06.12.17.22.35.28,1.78.62,7.6-1.88,8.92-2.57,1.36-.71,9.91-3.9,10.27-4.04.17-.06.36.02.43.19s-.02.36-.19.43c-.09.03-8.87,3.31-10.2,4.01-.93.49-5.89,2.74-8.53,2.74Z"/>
            <path class="st13" d="M973.2,60.39c-.95,0-1.57-.2-1.74-.75-.55-1.78,7.99-5.91,11.68-7.6.17-.07.36,0,.44.16.08.17,0,.36-.16.44-6.38,2.92-11.56,6.04-11.33,6.8.18.58,2.94.14,4.96-.18,2.78-.44,5.92-.94,7.93-.36.18.05.28.23.23.41-.05.18-.23.28-.41.23-1.87-.54-4.94-.05-7.65.38-1.59.25-2.95.47-3.95.47Z"/>
          </g>
          <polygon class="st14" points="1121.65 78.48 1121.48 78.62 1096.62 97.38 1079.41 110.37 1077.88 107.7 1074.57 101.93 1060.32 77.13 1059.48 75.65 1055.76 69.18 1066.58 56.94 1088.17 32.51 1121.48 78.24 1121.65 78.48"/>
          <path class="st13" d="M1077.55,108.26c-.13,0-.26-.07-.32-.19l-21.79-38.71c-.08-.15-.06-.33.07-.45l32.06-31.09c.15-.14.38-.14.52,0,.14.15.14.38,0,.53l-31.86,30.89,21.47,38.14,37.94-20.9c.18-.1.41-.03.51.15s.03.41-.15.51l-38.26,21.08c-.06.03-.12.04-.18.04Z"/>
        </g>
        <g>
          <path class="st13" d="M1014.94-21.41c-2.04,1.56-4.01,3.33-5.19,5.61-1.18,2.28-1.46,5.17-.15,7.37,1.2,2.01,3.45,3.13,5.64,3.95-3.53,2.05-5.83,6.05-5.85,10.13,0,2.14.66,4.4,2.3,5.78,1.64,1.38,3.93,1.64,6.08,1.71,3.92.13,7.86-.19,11.71-.95,4.05-.8,8.23-2.21,10.91-5.35,2.23-2.61,3.17-6.17,3.03-9.6s-1.27-6.76-2.77-9.85c-1.83-3.76-4.29-7.28-7.43-10.05-1.61-1.42-3.4-2.64-5.35-3.56-2.35-1.11-3.3-1.03-5.6.17-2.57,1.34-5.03,2.9-7.33,4.65Z"/>
          <g>
            <g>
              <g>
                <g>
                  <path class="st11" d="M1078.39,22.92s-4.47,9.37-11.69,11.64c-7.22,2.27-10.48,1.29-10.48,1.29l-1.11-2.57-3.6-8.32-1.44-3.32,21.13-16.94,7.19,18.23Z"/>
                  <path class="st13" d="M1069.96,17.98c-.98,3.08-2.35,6.09-4.45,8.44-2.73,3.07-6.68,4.84-10.62,4.77-.24,0-.49-.02-.74-.05l-3.6-8.32.34-.66c2.86-2.64,5.73-5.3,8.98-7.34,3.25-2.04,6.93-3.46,10.68-3.39.6,2.14.08,4.45-.6,6.56Z"/>
                </g>
                <path class="st11" d="M1069.18-10.42c-.15,12.01-11.12,21.62-24.51,21.46-13.39-.16-24.13-10.03-23.99-22.05.15-12.01,11.12-21.62,24.51-21.46,13.39.16,24.13,10.04,23.99,22.05Z"/>
                <g>
                  <path class="st11" d="M1022.48-3.1l13.59,26.4c3.68,4.77,9.19,6.65,13.59,4.54l23.75-14.72-8.02-24.17-42.91,7.96Z"/>
                  <path class="st11" d="M1061.44.31s3.74-13.98,11.54-10.8c7.81,3.19,3.86,15.26-5.21,17.53l-6.34-6.74Z"/>
                  <g>
                    <path class="st13" d="M1044.74,15.33c-1.15,0-2-.51-2.01-.52-.17-.11-.23-.34-.12-.51.11-.18.34-.23.51-.12.07.04,1.87,1.12,3.68-.37,1.48-1.21.4-3.91.39-3.93-.08-.19.01-.41.2-.48.19-.08.41.01.48.2.05.13,1.29,3.23-.61,4.79-.88.72-1.77.94-2.53.94Z"/>
                    <g>
                      <path class="st13" d="M1049.23,1.94c-.01,1.21-1.01,2.19-2.23,2.17s-2.19-1.01-2.17-2.23,1.01-2.19,2.23-2.17c1.21.01,2.19,1.01,2.17,2.23Z"/>
                      <path class="st13" d="M1034.65,8.3c-.01,1.21-1.01,2.19-2.23,2.17-1.21-.01-2.19-1.01-2.17-2.23s1.01-2.19,2.23-2.17c1.21.01,2.19,1.01,2.17,2.23Z"/>
                      <path class="st13" d="M1041.24,13.09c-1.65,0-3.79-6.19-4.63-8.87-.06-.2.05-.4.24-.47.2-.06.4.05.47.24,1.41,4.47,3.23,8.35,3.9,8.35,0,0,0,0,.01,0,1.4-.09,2.52-1.05,2.53-1.06.16-.14.39-.12.52.04.13.15.12.39-.03.52-.05.05-1.32,1.14-2.97,1.25-.01,0-.03,0-.04,0Z"/>
                    </g>
                  </g>
                  <path class="st13" d="M1069.01,2.79c-.16,0-.31-.11-.36-.27-1.33-4.69.23-10.02,3.89-13.26.15-.14.39-.12.52.03.14.15.12.39-.03.52-3.45,3.05-4.92,8.07-3.66,12.5.06.2-.06.4-.26.46-.03,0-.07.01-.1.01Z"/>
                </g>
              </g>
              <g>
                <path class="st13" d="M1042.41-1.77c.97.19,1.96-.14,2.89-.5,1.15-.45,2.41-1.17,2.23-2.58-.16-1.28-1.39-2.1-2.59-2.06-2.3.07-6.55,4.35-2.54,5.15Z"/>
                <path class="st13" d="M1027.27,4.35c.97.19,1.96-.14,2.89-.5,1.15-.45,2.41-1.17,2.23-2.59-.16-1.28-1.39-2.1-2.58-2.06-2.29.07-6.55,4.35-2.54,5.15Z"/>
              </g>
            </g>
            <path class="st13" d="M1070.74-10.84c-1.83.23-5.58,5.61-6.38,9.36-1.11-1.86-2.06-4.08-3.17-5.94-3.49,1.16-7.39,1.01-10.78-.41-3.39-1.42-6.69-3.85-8.3-7.15-3.64.75-7.59.32-10.77-1.6-3.18-1.92-6.57-6.72-6.67-10.43,11.29-7.97,23.72-9.11,36.11-8.68,2.23.08,4.54.3,6.45,1.46,2.85,1.74,4.15,5.15,5.04,8.37,1.4,5.09,2.01,10.98,2.29,16.25-.65-.49-2.39-1.46-3.82-1.23Z"/>
          </g>
        </g>
        <g>
          <path class="st15" d="M1033.52,136.53c-.96,3.93-3.78,7.23-7.18,9.44h-57.68c-2.94-1.56-5.68-3.48-8.09-5.82-7.04-6.85-10.58-17.85-6.7-26.86,1.96-4.56,5.59-8.25,9.75-10.95,4.16-2.71,8.85-4.48,13.58-5.97,8.99-2.84,16.83-3.91,25.69-.45,4.07,1.59,7.75,4.19,10.63,7.48,2.49,2.84,4.36,6.17,5.37,9.82.74,2.66,1.12,5.6,3,7.64.24.26.49.49.75.7,2.11,1.73,5.07,2.31,7.3,3.94,3.3,2.44,4.55,7.05,3.59,11.02Z"/>
          <g>
            <path class="st8" d="M960.61,110.78c-1.63,2.24-2.9,4.84-3.02,7.6-.11,2.76,1.11,5.69,3.51,7.07,2.4,1.38,5.92.75,7.26-1.67.55-.99.71-2.15,1-3.24.74-2.82,2.39-5.65,1.6-8.45-.63-2.25-2.82-3.51-4.98-4.01-2.39-.55-3.97.78-5.37,2.7Z"/>
            <path class="st4" d="M970.07,133.94c.73,2.3,2.24,4.39,4.33,5.6,2.09,1.22,4.75,1.49,6.96.54,1.99-.86,3.6-3.05,2.98-5.12-.32-1.06-1.14-1.87-1.93-2.64-1.37-1.33-2.76-2.67-4.39-3.67-1.64-1-4.39-2.18-6.24-1.08-2.16,1.28-2.38,4.24-1.71,6.37Z"/>
            <path class="st9" d="M1007.57,144.06c-.74.8-1.63,1.44-2.61,1.91h-10.65c-1.05-.38-2.04-.91-2.83-1.69-1.1-1.08-1.76-2.73-1.32-4.21,1-3.34,6.54-3.73,9.46-4.01,3.24-.31,9-.19,9.45,4.16.15,1.41-.54,2.79-1.5,3.82Z"/>
            <path class="st10" d="M1013.58,137.86c1.27,1.63,3.52,2.16,5.58,2.1,2.37-.06,4.79-.81,6.53-2.43,3.96-3.7,1.69-11.41-4.3-10.69-4.4.53-11.55,6.21-7.81,11.01Z"/>
          </g>
        </g>
      </g>
      <g>
        <path class="st14" d="M984.99,18.56c0,2.42-1.96,4.38-4.38,4.38s-4.38-1.96-4.38-4.38,1.96-4.38,4.38-4.38c2.42,0,4.38,1.96,4.38,4.38Z"/>
        <path class="st14" d="M1010.03-33.59c0,2.42-1.96,4.38-4.38,4.38s-4.38-1.96-4.38-4.38,1.96-4.38,4.38-4.38c2.42,0,4.38,1.96,4.38,4.38Z"/>
        <path class="st14" d="M1095.33,7.86c0,2.42-1.96,4.39-4.38,4.39s-4.38-1.96-4.38-4.39,1.96-4.38,4.38-4.38,4.38,1.96,4.38,4.38Z"/>
        <path class="st14" d="M971.1,78.15c0,2.42-1.96,4.38-4.39,4.38s-4.38-1.96-4.38-4.38,1.96-4.38,4.38-4.38,4.39,1.96,4.39,4.38Z"/>
      </g>
    </g>
  </g>
  <g>
    <path class="st12" d="M144.89,234.03c-2.75,0-5.51.02-8.26.02h-51.55c-.63-.02-1.78.04-2.36.04l-60.08.2c-.57,0-1.13-.08-1.66-.24h-.78c-3.19,0-5.78-2.59-5.78-5.78v-113.35c0-11.74,2.07-23.19,6.16-34.03,1.3-3.48,2.82-6.91,4.51-10.19.03-.06.05-.12.08-.17.64-1.25,1.34-2.54,2.07-3.81.38-.65.74-1.28,1.12-1.9.57-.94,1.18-1.92,1.87-2.96,1.08-1.64,2.08-3.09,3.06-4.41,1.14-1.54,2.31-3.03,3.46-4.4,1.88-2.28,4.02-4.63,6.33-6.92,14.49-14.36,32.71-23.64,52.72-26.83,2.81-.45,5.61-.78,8.32-.98,1.37-.11,2.86-.18,4.4-.23l1.25-.03c.5-.01.99-.01,1.49-.01.33,0,.65,0,.98.01.2,0,.41,0,.61.01,1.2.01,2.44.06,3.82.13,1.43.08,2.88.19,4.33.34,14.55,1.45,28.59,6.22,40.99,13.85,4.3-6.33,11.55-10.36,19.49-10.36,12.99,0,23.57,10.57,23.57,23.57,0,8.07-4.04,15.38-10.6,19.68,5.16,8.65,8.92,17.98,11.17,27.77,1.13,4.86,1.88,9.81,2.21,14.69.11,1.33.19,2.73.23,4.28.01.35.02.71.01,1.08.02.6.03,1.2.03,1.81v113.35c0,1.98-1,3.73-2.52,4.77-1.02.8-2.28,1.25-3.59,1.25-2.21-.01-4.41-.03-6.62-.04-5.16-.04-10.32-.07-15.48-.11-5.94-.04-11.89-.08-17.83-.12-5.74-.04-11.48-.01-17.22.01Z"/>
    <g>
      <path class="st18" d="M202.39,114.92v113.35H20.23v-113.35c0-11.26,2.03-22.03,5.79-31.99,1.25-3.35,2.7-6.6,4.33-9.75h0c.62-1.22,1.26-2.4,1.94-3.58.35-.59.69-1.19,1.05-1.78.57-.94,1.16-1.87,1.75-2.77.93-1.41,1.88-2.8,2.88-4.15,1.04-1.4,2.12-2.78,3.25-4.12,1.88-2.28,3.88-4.46,5.98-6.55,2.12-2.1,4.34-4.1,6.66-5.98,3.19-2.6,6.55-4.98,10.08-7.13,9.86-6.02,20.95-10.21,32.81-12.11,2.57-.41,5.19-.73,7.83-.92,1.37-.11,2.76-.18,4.15-.21.4,0,.81-.02,1.22-.03.45,0,.9,0,1.36,0,.3,0,.59,0,.88,0,.19,0,.37,0,.55,0h.01c1.23,0,2.44.05,3.65.12,1.37.08,2.73.18,4.09.32,16.28,1.63,31.3,7.54,43.9,16.61.77.55,1.53,1.11,2.28,1.69h.01c.68.52,1.36,1.06,2.02,1.61,1.05.84,2.08,1.71,3.08,2.61,1.35,1.2,2.66,2.43,3.93,3.7,3.8,3.79,7.25,7.9,10.31,12.3.01,0,.01.01.01.01.15.21.3.42.44.64.82,1.18,1.6,2.39,2.36,3.62,5.13,8.3,8.96,17.48,11.22,27.27,1.04,4.48,1.75,9.08,2.08,13.79h0c.11,1.35.18,2.69.22,4.05.01.31.02.62.01.94.02.59.03,1.19.03,1.78Z"/>
      <g>
        <g>
          <g>
            <path class="st14" d="M62.36,207.87l9.65,1.23c.31.04.53.32.49.64s-.33.53-.64.49c-.01,0-.03,0-.04,0l-9.52-1.96c-.11-.02-.18-.13-.15-.24.02-.1.12-.17.22-.16Z"/>
            <path class="st14" d="M63.74,208.09c0,.63-.51,1.14-1.14,1.14s-1.14-.51-1.14-1.14.51-1.14,1.14-1.14,1.14.51,1.14,1.14Z"/>
          </g>
          <path class="st14" d="M138.39,219.4c-.79-.18-1.59-.33-2.42-.29-.42.08-.83.05-1.23-.02l-1.2-.16c-1.61-.2-3.21-.46-4.8-.76-.31-.06-.51-.36-.45-.67.06-.3.34-.5.64-.46,1.6.23,3.2.5,4.79.83l1.19.24c.4.06.79.17,1.17.38.77.31,1.57.43,2.38.51.11.01.19.11.18.22-.01.11-.11.19-.22.18,0,0-.02,0-.03,0Z"/>
          <path class="st14" d="M139.89,219.1c0,.64-.52,1.16-1.16,1.16s-1.16-.52-1.16-1.16.52-1.16,1.16-1.16,1.16.52,1.16,1.16Z"/>
        </g>
        <g>
          <path class="st13" d="M118.7,220.7l-37.13-5.35c-.85-.12-1.44-.91-1.32-1.76l.73-5.07c.12-.85.91-1.44,1.76-1.32l37.13,5.35c1.08.16,1.83,1.16,1.67,2.24l-.61,4.23c-.16,1.08-1.16,1.83-2.24,1.67Z"/>
          <path class="st9" d="M126.79,221.1l-6.19-.89.93-6.43,6.19.89c1.35.19,2.28,1.44,2.09,2.79l-.22,1.55c-.19,1.35-1.44,2.28-2.79,2.09Z"/>
          <path class="st9" d="M74.84,206.94l6.19.89-.93,6.43-6.19-.89c-1.35-.19-2.28-1.44-2.09-2.79l.22-1.55c.19-1.35,1.44-2.28,2.79-2.09Z"/>
        </g>
      </g>
      <path class="st4" d="M111.07,57.06l-20.59,1.21-19.64-18c-1.71-1.56-4.27-2.74-6.9-3.15-3.53,2.15-6.89,4.53-10.08,7.13.11,2.21,1.16,4.45,2.49,6.14,3.96,5.04,11.89,7.14,17.61,9.64,3.9,1.7,7.79,3.4,11.69,5.11l8.99,17.42c.57,1.09,2.1,1.17,2.77.14l15.1-23.16c.72-1.1-.12-2.55-1.44-2.48ZM64.5,46.6c-.97,1.5-2.98,1.93-4.48.95s-1.92-2.99-.94-4.49c.97-1.5,2.98-1.92,4.48-.94,1.5.98,1.92,2.98.94,4.48Z"/>
      <g>
        <g>
          <polygon class="st14" points="123.59 62.03 129.41 64.25 131.59 49.77 123.59 62.03"/>
          <rect class="st14" x="125.54" y="62.73" width="1.67" height="1.57" transform="translate(21.92 158.87) rotate(-69.08)"/>
        </g>
        <g>
          <rect class="st14" x="102.44" y="112.01" width="10.53" height="1.4" transform="translate(-36.03 173.07) rotate(-69.08)"/>
          <path class="st14" d="M106.48,115.71c1.31.5,1.27,3.8-.1,7.37s-3.53,6.05-4.84,5.55c-1.31-.5-1.27-3.8.1-7.37,1.36-3.57,3.53-6.06,4.84-5.55Z"/>
        </g>
        <g>
          <path class="st13" d="M126.28,73.78l-11.77,30.8c-.27.7-1.06,1.06-1.76.79l-4.21-1.61c-.7-.27-1.06-1.06-.79-1.76l11.77-30.8c.34-.9,1.35-1.35,2.24-1l3.51,1.34c.9.34,1.35,1.35,1,2.24Z"/>
          <path class="st9" d="M128.19,66.92l-1.96,5.14-5.33-2.04,1.96-5.14c.43-1.12,1.68-1.68,2.8-1.25l1.29.49c1.12.43,1.68,1.68,1.25,2.8Z"/>
          <path class="st9" d="M105.99,108.72l1.96-5.14,5.33,2.04-1.96,5.14c-.43,1.12-1.68,1.68-2.8,1.25l-1.29-.49c-1.12-.43-1.68-1.68-1.25-2.8Z"/>
        </g>
      </g>
      <g>
        <path class="st15" d="M81.99,142.35c-.81,3.24,1.76,11.49,4.46,18.92,2.7,7.43,4.33,35.25,4.33,35.25,0,0-3.66.02-8.25.43-4.59.4-11.08-.95-11.08-.95l-.5-.41h-2.47l-.41,2.17s-4.05,3.24-14.51,3.66c-10.45.43-23.6-4.61-23.6-4.61,0,0-1.35-19.73-.81-26.76s11.76-21.62,12.16-25.14c.36-3.09-5.37-12.37-6.74-14.54-.18-.29-.29-.46-.29-.46,0,0-8.51,1.08-9.73-.81-.27-.41-.54-1.19-.8-2.22-.95-3.75-1.83-10.92-2.04-16.42-.27-7.03,3.38-11.62,7.97-14.06,4.59-2.43,7.03-5,9.71-8.81,2.32-3.3,2.26-6.54,2.2-9.63-.01-.48-.02-.95-.02-1.42,0-3.51,7.97-5.41,7.97-5.41,7.11-.57,9.23,3.11,10,6.16.33,1.3.42,2.48.54,3.17.41,2.3,4.73,5,11.89,7.03s10.27,2.16,14.6,7.57c4.32,5.41,8.11,18.11,8.24,20.27.14,2.16-4.32,3.65-4.32,3.65-1.49,5.13-5.54,6.89-5.54,6.89,0,0-2.16,13.25-2.97,16.49Z"/>
        <g>
          <path class="st6" d="M59.56,77.29c-.45.83-1.08,1.57-1.84,2.12-2.09,1.53-4.83,1.86-7.42,1.66-1.51-.11-3.01-.38-4.48-.78-1.56-.42-3.23-1.15-4.22-2.34-.01-.48-.02-.95-.02-1.42,0-3.51,7.97-5.41,7.97-5.41,7.1-.57,9.23,3.12,10,6.16Z"/>
          <path class="st6" d="M34.58,130.38c-.18-.29-.29-.46-.29-.46,0,0-8.51,1.08-9.73-.81-.27-.41-.54-1.19-.8-2.22,2.14-.16,4.59.26,5.99.34,1.4.09,2.96.24,3.92,1.26.49.52.75,1.19.91,1.89Z"/>
          <g class="st16">
            <path class="st10" d="M59.28,121.74c0,1.08-.88,1.96-1.96,1.96s-1.96-.88-1.96-1.96.88-1.96,1.96-1.96,1.96.88,1.96,1.96Z"/>
            <circle class="st10" cx="87.19" cy="117.15" r="1.69"/>
          </g>
          <g class="st17">
            <path class="st10" d="M47.24,125.25c1.2,1.65,2.96,2.75,4.83,3.35,1.89.59,3.89.73,5.88.64,1.99-.07,3.97-.39,5.78-1.17,1.79-.79,3.41-2.11,4.34-3.93-.3.98-.88,1.86-1.58,2.62-.72.75-1.57,1.37-2.5,1.85-1.86.97-3.97,1.32-6.01,1.41-2.05.08-4.17-.09-6.11-.86-1.93-.75-3.7-2.09-4.62-3.92Z"/>
            <path class="st10" d="M77.39,122.35c.89,1.04,1.9,1.97,3.06,2.63,1.14.69,2.48,1.05,3.73.78,2.51-.66,4.52-2.79,5.46-5.22.51-1.21.82-2.53.78-3.82-.03-1.27-.59-2.54-1.06-3.8-.51-1.25-1.1-2.48-1.71-3.69-.59-1.23-1.24-2.43-1.88-3.64,1.56,2.24,2.97,4.59,4.15,7.08.29.62.57,1.26.79,1.92.23.65.41,1.36.44,2.09.06,1.43-.24,2.84-.77,4.15-1.08,2.57-3.21,4.9-6.08,5.52-1.46.23-2.91-.27-4.05-1.05-1.14-.81-2.11-1.81-2.86-2.96Z"/>
            <path class="st10" d="M63.15,181.24c1.02,2.52,1.96,5.07,2.88,7.63.48,1.27.9,2.56,1.35,3.85.22.63.44,1.31.67,1.9.12.28.26.5.47.63.21.14.48.21.77.23,1.18.08,2.3-.76,2.99-1.83.71-1.09,1.23-2.36,1.8-3.58,1.07-2.47,1.89-5.06,2.5-7.71-.29,2.71-.96,5.38-1.93,7.94-.49,1.29-1.02,2.53-1.76,3.74-.74,1.18-2.03,2.3-3.64,2.23-.39-.03-.8-.13-1.15-.37-.37-.24-.6-.64-.73-.98-.25-.69-.43-1.3-.65-1.96-.42-1.29-.86-2.58-1.24-3.88-.8-2.6-1.6-5.2-2.3-7.82Z"/>
            <path class="st10" d="M82.26,172.08c.28-1.34.6-2.66.89-3.99l.86-3.97.81-3.98c.26-1.33.5-2.67.79-4.01.04,1.37-.05,2.74-.18,4.1-.13,1.36-.36,2.71-.64,4.05-.29,1.34-.62,2.67-1.05,3.97-.42,1.3-.89,2.59-1.48,3.83Z"/>
            <path class="st10" d="M32.53,121.4c.6,1.36.96,2.76,1.27,4.18.28,1.42.5,2.85.49,4.34-.6-1.36-.96-2.76-1.27-4.18-.28-1.42-.5-2.86-.49-4.34Z"/>
          </g>
        </g>
      </g>
      <g>
        <g>
          <g>
            <g>
              <path class="st3" d="M127.73,126.8s-3.03-14.61.89-14.7,0,14.97,0,14.97l-.89-.27Z"/>
              <path class="st3" d="M128.53,127.33s3.03,14.61-.89,14.7c-3.92.09,0-14.97,0-14.97l.89.27Z"/>
            </g>
            <g>
              <path class="st3" d="M128.01,126.6s7.7-12.79,10.63-10.19-10.16,10.99-10.16,10.99l-.47-.8Z"/>
              <path class="st3" d="M128.24,127.53s-7.7,12.79-10.64,10.19c-2.94-2.6,10.16-10.99,10.16-10.99l.47.8Z"/>
            </g>
            <g>
              <path class="st3" d="M128.36,126.64s14.33-4.16,14.73-.26c.4,3.9-14.92,1.17-14.92,1.17l.2-.91Z"/>
              <path class="st3" d="M127.89,127.49s-14.33,4.16-14.73.26c-.4-3.9,14.92-1.17,14.92-1.17l-.2.91Z"/>
            </g>
            <g>
              <path class="st3" d="M128.59,126.92s13.35,6.67,10.99,9.8c-2.36,3.13-11.75-9.27-11.75-9.27l.76-.53Z"/>
              <path class="st3" d="M127.67,127.22s-13.35-6.67-10.99-9.8c2.36-3.13,11.75,9.27,11.75,9.27l-.76.53Z"/>
            </g>
          </g>
          <path class="st4" d="M130.01,127.24c0,1.05-.85,1.9-1.9,1.9s-1.9-.85-1.9-1.9.85-1.9,1.9-1.9c1.05,0,1.9.85,1.9,1.9Z"/>
        </g>
        <g>
          <g>
            <g>
              <path class="st3" d="M142.02,193.86s-3.03-14.61.89-14.7c3.92-.09,0,14.97,0,14.97l-.89-.27Z"/>
              <path class="st3" d="M142.83,194.4s3.03,14.61-.89,14.7c-3.92.09,0-14.97,0-14.97l.89.27Z"/>
            </g>
            <g>
              <path class="st3" d="M142.31,193.66s7.7-12.79,10.63-10.19c2.94,2.6-10.16,10.99-10.16,10.99l-.47-.8Z"/>
              <path class="st3" d="M142.54,194.6s-7.7,12.79-10.63,10.19c-2.94-2.6,10.16-10.99,10.16-10.99l.47.8Z"/>
            </g>
            <g>
              <path class="st3" d="M142.66,193.71s14.33-4.16,14.73-.26-14.92,1.17-14.92,1.17l.2-.91Z"/>
              <path class="st3" d="M142.19,194.55s-14.33,4.16-14.73.26c-.4-3.9,14.92-1.17,14.92-1.17l-.2.91Z"/>
            </g>
            <g>
              <path class="st3" d="M142.88,193.98s13.35,6.67,10.99,9.8c-2.36,3.13-11.75-9.27-11.75-9.27l.76-.53Z"/>
              <path class="st3" d="M141.97,194.28s-13.35-6.67-10.99-9.8c2.36-3.13,11.75,9.27,11.75,9.27l-.76.53Z"/>
            </g>
          </g>
          <path class="st4" d="M144.31,194.31c0,1.05-.85,1.9-1.9,1.9s-1.9-.85-1.9-1.9.85-1.9,1.9-1.9,1.9.85,1.9,1.9Z"/>
        </g>
        <g>
          <g>
            <g>
              <path class="st3" d="M197.73,114.28s-3.03-14.61.89-14.7c3.92-.09,0,14.97,0,14.97l-.89-.27Z"/>
              <path class="st3" d="M198.54,114.82s3.03,14.61-.89,14.7,0-14.97,0-14.97l.89.27Z"/>
            </g>
            <g>
              <path class="st3" d="M202.34,112.2c-.69.52-1.36.99-1.93,1.4-.2.14-.39.26-.56.38-.38.26-.68.46-.92.62-.19.12-.33.22-.39.26-.04.03-.06.04-.06.04l-.06-.1-.12-.19-.04-.07-.06-.1-.05-.09-.1-.17-.06-.09s.01-.01.02-.03c.02-.04.07-.12.14-.23.12-.2.31-.51.56-.9.12-.18.26-.39.41-.63.74-1.14,1.8-2.68,2.97-4.14.12,1.34.18,2.68.22,4.03Z"/>
              <path class="st3" d="M198.25,115.02s-7.7,12.79-10.64,10.19c-2.94-2.6,10.16-10.99,10.16-10.99l.47.8Z"/>
            </g>
            <g>
              <path class="st3" d="M202.38,114.92v.7c-.7-.08-1.36-.15-1.93-.23-.18-.03-.37-.06-.53-.09-.57-.08-1.03-.14-1.33-.2-.17-.03-.3-.05-.37-.06-.04-.01-.06-.01-.06-.01l.02-.11.05-.2.02-.1.02-.11.02-.08.05-.22.02-.1s.02,0,.05-.01c.06-.02.18-.06.35-.1.24-.07.58-.16.99-.27.2-.05.42-.11.67-.16.57-.14,1.22-.3,1.94-.45.02.59.03,1.19.03,1.78Z"/>
              <path class="st3" d="M197.9,114.97s-14.33,4.16-14.73.26c-.4-3.9,14.92-1.17,14.92-1.17l-.2.91Z"/>
            </g>
            <g>
              <path class="st3" d="M202.38,116.49v3.79c-1.33-1.4-2.54-2.84-3.38-3.87-.08-.1-.14-.18-.21-.27t-.01-.01c-.29-.36-.52-.64-.68-.86-.11-.14-.18-.24-.22-.29-.03-.03-.04-.05-.04-.05l.09-.06.17-.12.07-.05.1-.07.06-.04.14-.1.14-.1s.02.01.06.03c.06.03.15.08.29.15.24.12.6.31,1.04.54.15.09.31.17.47.27.57.31,1.22.67,1.93,1.1Z"/>
              <path class="st3" d="M197.68,114.7s-13.35-6.67-10.99-9.8c2.36-3.13,11.75,9.27,11.75,9.27l-.76.53Z"/>
            </g>
          </g>
          <path class="st4" d="M200.02,114.73c0,1.05-.85,1.9-1.9,1.9s-1.9-.85-1.9-1.9.85-1.9,1.9-1.9,1.9.85,1.9,1.9Z"/>
        </g>
        <g>
          <g>
            <g>
              <path class="st3" d="M26.88,167.8s-3.03-14.61.89-14.7,0,14.97,0,14.97l-.89-.27Z"/>
              <path class="st3" d="M27.69,168.34s3.03,14.61-.89,14.7c-3.92.09,0-14.97,0-14.97l.89.27Z"/>
            </g>
            <g>
              <path class="st3" d="M27.17,167.6s7.7-12.79,10.64-10.19c2.94,2.6-10.16,10.99-10.16,10.99l-.47-.8Z"/>
              <path class="st3" d="M27.4,168.54s-.01,0-.02.03c-.02.04-.07.12-.14.23-.15.25-.4.66-.74,1.18-.08.11-.15.22-.23.35-1.4,2.11-3.84,5.59-6.04,7.46v-5.09c1.63-1.41,3.45-2.74,4.78-3.67.15-.1.3-.2.43-.29.42-.3.78-.53,1.04-.7.2-.13.34-.22.4-.26.03-.03.05-.04.05-.04l.05.09.12.2.04.07.05.09.06.09.1.18.06.08Z"/>
            </g>
            <g>
              <path class="st3" d="M27.52,167.65s14.33-4.16,14.73-.26c.4,3.9-14.92,1.17-14.92,1.17l.2-.91Z"/>
              <path class="st3" d="M27.25,167.59l-.02.11-.05.19-.02.1-.02.12-.02.07-.05.22-.02.11s-.01,0-.04,0c-.05.02-.17.05-.36.11-.27.07-.67.17-1.17.3-.14.05-.31.09-.48.12-1.27.32-3.01.7-4.78.99v-3.29c1.74.12,3.45.32,4.74.5.23.03.44.06.64.09.51.08.93.15,1.21.19.16.02.29.05.36.06h.01s.06,0,.06,0Z"/>
            </g>
            <g>
              <path class="st3" d="M27.74,167.92s13.35,6.67,10.99,9.8c-2.36,3.13-11.75-9.27-11.75-9.27l.76-.53Z"/>
              <path class="st3" d="M27.58,167.68l-.09.07-.17.12-.07.05-.1.07-.06.05-.14.09-.14.11s-.02,0-.06-.03c-.06-.03-.15-.08-.29-.15-.23-.12-.57-.29-.97-.51-.16-.09-.35-.19-.54-.29-1.29-.71-3.07-1.75-4.74-2.9v-4.67c2.38,1.96,5.02,5.08,6.4,6.79,0,0,.01,0,.01.02.3.36.53.65.69.87.11.14.18.24.22.29.03.03.04.05.04.05Z"/>
            </g>
          </g>
          <path class="st4" d="M29.17,168.25c0,1.05-.85,1.9-1.9,1.9s-1.9-.85-1.9-1.9.85-1.9,1.9-1.9,1.9.85,1.9,1.9Z"/>
        </g>
        <g>
          <g>
            <g>
              <path class="st3" d="M40.49,68.7c-.05.26-.11.5-.15.72-.1.39-.17.73-.23.98-.05.17-.08.32-.11.4-.02.09-.03.12-.03.12l-.17-.05-.15-.05-.06-.02-.12-.04-.09-.03-.19-.06-.1-.03s0-.01-.01-.04c-.01-.05-.03-.14-.05-.25-.05-.22-.12-.58-.19-1.03v-.03c-.34-1.9-.89-5.46-.87-8.42,1.04-1.41,2.12-2.78,3.25-4.12,1.17,2.23.03,8.53-.72,11.93Z"/>
              <path class="st3" d="M39.89,71.2s3.03,14.61-.89,14.7c-3.92.09,0-14.97,0-14.97l.89.27Z"/>
            </g>
            <g>
              <path class="st3" d="M39.37,70.47s7.7-12.79,10.63-10.19c2.94,2.6-10.16,10.99-10.16,10.99l-.47-.8Z"/>
              <path class="st3" d="M39.6,71.4s-7.7,12.79-10.63,10.19,10.16-10.99,10.16-10.99l.47.8Z"/>
            </g>
            <g>
              <path class="st3" d="M39.72,70.51s14.33-4.17,14.73-.26-14.92,1.17-14.92,1.17l.2-.91Z"/>
              <path class="st3" d="M39.44,70.45l-.02.1-.05.21-.02.1-.02.11-.02.08-.05.23-.02.09s-.01,0-.04.01c-.05.02-.17.05-.35.1-.27.08-.67.18-1.18.32-.15.04-.31.08-.48.12-1.77.44-4.42,1.03-6.85,1.27.62-1.2,1.26-2.39,1.94-3.56,1.79.11,3.55.32,4.88.5.23.03.44.06.64.09.52.08.94.14,1.22.19.18.03.3.05.37.06.03,0,.05,0,.05,0Z"/>
            </g>
            <g>
              <path class="st3" d="M39.94,70.79s13.35,6.67,10.99,9.8c-2.36,3.13-11.75-9.27-11.75-9.27l.76-.53Z"/>
              <path class="st3" d="M39.79,70.55l-.09.07-.17.12-.07.05-.11.07-.06.05-.14.09-.14.1s-.02-.01-.06-.03c-.06-.03-.15-.08-.3-.15-.23-.12-.57-.29-.97-.51-.16-.1-.35-.19-.53-.29-1.06-.59-2.45-1.39-3.83-2.28.57-.94,1.16-1.87,1.75-2.77,1.49,1.56,2.86,3.2,3.73,4.29,0,0,.02.01.02.02.3.36.53.65.69.87.11.14.18.24.22.29.03.03.04.05.04.05Z"/>
            </g>
          </g>
          <path class="st4" d="M41.37,71.11c0,1.05-.85,1.9-1.9,1.9s-1.9-.85-1.9-1.9.85-1.9,1.9-1.9,1.9.85,1.9,1.9Z"/>
        </g>
        <g>
          <g>
            <g>
              <path class="st3" d="M112.19,23.84c-.09.43-.17.84-.26,1.21-.06.27-.12.52-.16.75-.1.4-.17.72-.23.97-.05.19-.09.34-.11.42-.02.08-.03.12-.03.12l-.18-.06-.14-.04-.07-.02-.12-.04-.08-.03-.2-.06-.1-.03v-.02s-.03-.12-.06-.27c-.05-.22-.12-.58-.19-1.03v-.03c-.1-.51-.2-1.15-.31-1.86.45,0,.91,0,1.36,0,.3,0,.59,0,.89.01Z"/>
              <path class="st3" d="M111.31,27.59s3.03,14.61-.89,14.7c-3.92.09,0-14.97,0-14.97l.89.27Z"/>
            </g>
            <g>
              <path class="st3" d="M116.4,23.98c-1.16.92-2.29,1.73-3.21,2.38-.2.13-.39.27-.57.38-.37.25-.67.45-.91.61-.2.13-.34.22-.4.26-.03.03-.05.04-.05.04l-.05-.09-.12-.2-.04-.07-.05-.09-.06-.09-.11-.18-.05-.09s.01,0,.02-.03c.02-.04.07-.12.14-.22.12-.19.32-.5.57-.9.12-.19.26-.4.41-.65.24-.37.51-.77.81-1.2h.01c1.23.01,2.44.06,3.65.13Z"/>
              <path class="st3" d="M111.02,27.79s-7.7,12.79-10.63,10.19,10.16-10.99,10.16-10.99l.47.8Z"/>
            </g>
            <g>
              <path class="st3" d="M111.14,26.9s14.33-4.17,14.73-.26-14.92,1.17-14.92,1.17l.2-.91Z"/>
              <path class="st3" d="M110.67,27.74s-14.33,4.17-14.73.26c-.4-3.9,14.92-1.17,14.92-1.17l-.2.91Z"/>
            </g>
            <g>
              <path class="st3" d="M111.36,27.17s13.35,6.67,10.99,9.8c-2.36,3.13-11.75-9.27-11.75-9.27l.76-.53Z"/>
              <path class="st3" d="M111.21,26.94l-.09.07-.17.12-.07.05-.1.07-.06.05-.14.09-.14.11s-.02,0-.06-.03c-.06-.03-.15-.08-.29-.15-.23-.12-.56-.29-.96-.5-.17-.1-.37-.2-.57-.32-1.1-.61-2.55-1.44-3.99-2.39,1.37-.11,2.76-.17,4.14-.21.59.69,1.11,1.33,1.51,1.84,0,0,.02,0,.02.02.3.36.53.65.69.87.11.14.18.24.22.29.03.03.04.05.04.05Z"/>
            </g>
          </g>
          <path class="st4" d="M112.79,27.5c0,1.05-.85,1.9-1.9,1.9s-1.9-.85-1.9-1.9.85-1.9,1.9-1.9,1.9.85,1.9,1.9Z"/>
        </g>
      </g>
      <g>
        <g>
          <path class="st13" d="M92.36,198.7c0,.65-.26,1.22-.68,1.64-.41.42-.99.68-1.64.68H20.22v-4.65h69.82c1.28,0,2.32,1.04,2.32,2.33Z"/>
          <polygon class="st13" points="83.48 228.29 22.66 228.51 48.61 218.15 50.2 201.03 50.36 199.27 59.49 197.67 59.31 201.03 58.43 217.88 83.48 228.29"/>
        </g>
        <g>
          <path class="st11" d="M124.61,155.73s-60.61-50.36-59.7-51.64c.92-1.28,14.28,4.03,15.38,3.85s-18.13-18.86-17.4-20.33,17.58,12.09,21.06,14.28c3.48,2.2,32.05,23.62,32.05,23.62l29.12,15.93-20.51,14.28Z"/>
          <g>
            <path class="st11" d="M147.13,143.19l-38.45,22.8-23.9-18.4-14.83,10.71s32.69,33.79,38.73,34.06c6.04.27,49.17-24.72,49.17-24.72l-10.71-24.45Z"/>
            <path class="st11" d="M69.95,158.29s-22.43-18.04-21.97-19.04,12.54,4.94,12.54,4.94c0,0-12.82-12.27-12.27-13.64s16.11,9.61,16.11,9.61l.55-.55s-13.09-13.37-12.27-14.65c.82-1.28,15.47,11.81,15.47,11.81,0,0-9.98-14.38-8.97-15.38,1.01-1.01,17.3,17.03,17.3,17.03,0,0-1.83-8.7-.27-9.06,1.56-.37,8.61,18.22,8.61,18.22l-14.83,10.71Z"/>
          </g>
          <g>
            <g>
              <g>
                <path class="st11" d="M173.69,111.23s-13.74,10.25-22.89,9.15v-17.94l17.95-10.43,3.3,4.21,1.64,15.02Z"/>
                <path class="st13" d="M164.35,99.57c-.97,3.26-3.61,5.71-6.29,7.81-2.32,1.82-4.74,3.51-7.26,5.02v-8.65c1.27-.37,2.56-.65,3.73-1,1.71-.53,3.41-1.07,5.1-1.62.59-.19,4.35-1.04,4.72-1.56Z"/>
              </g>
              <path class="st11" d="M187.05,68.93c0,11.86-7.98,21.84-18.87,24.87l-.74,4.32c-.42,2.46-2.38,4.38-4.85,4.74l-19.77,2.9c-3.16.47-6.05-1.92-6.16-5.12l-.32-8.37-.03-.8-.13-3.31c-3.71-.1-7.78-.44-7.89-1.49-.13-1.18,4.22-3.87,7.61-5.78l-.4-10.17c-.04-.6-.08-1.21-.08-1.82,0-14.26,11.57-25.82,25.82-25.82,14.26,0,25.82,11.57,25.82,25.82Z"/>
              <path class="st4" d="M172.34,97.39c-3.67-3.18-6.56-7.84-6.85-12.69-2.3.92-4.93.96-7.25.12-2.32-.84-4.32-2.56-5.49-4.73-1.29-2.39-1.87-4.96-1.87-7.68-3.54-.18-7.08-1.26-9.93-3.38s-4.95-5.3-5.46-8.81c0,0,1.07-14.81,20.71-17.56,19.64-2.75,27.88,9.2,30.35,14.42,2.47,5.22,4.12,15.52-1.37,24.86l-12.84,15.45Z"/>
              <g>
                <circle class="st13" cx="140.5" cy="80.7" r="2.06"/>
                <g>
                  <path class="st11" d="M175.78,82.69c1.21,3.29-.1,7.41-3.15,9.13-5.17,2.92-12.05,1.06-12.62-5.42-.42-4.78,4.47-8.88,9.07-8.72,2.97.1,5.69,2.25,6.7,5.01Z"/>
                  <path class="st1" d="M163.51,89.35c-.1-2.54,1.05-5.09,3.01-6.7,1.96-1.61,4.68-2.25,7.15-1.66"/>
                </g>
                <path class="st13" d="M142.34,89.99c-1.68,1.41-3.82,2.23-6.01,2.29l-.03-.8c2.01-.07,3.97-.81,5.52-2.11.17-.14.43-.12.57.05.15.16.12.42-.04.56Z"/>
                <path class="st4" d="M137.99,75.08c.07.33.75.53,1.37.63.62.1,1.27.16,1.93.17.5.01,1.02,0,1.49-.1,2.22-.44.91-1.84-.82-2.12-1.45-.24-4.14.54-3.96,1.42Z"/>
              </g>
              <circle class="st4" cx="181.53" cy="45.59" r="17.79"/>
            </g>
            <path class="st9" d="M144.38,228.16l1.93-50.09-20.59,11.53-1.3-3.69-8.56-24.17-1.13-3.17s3.24-1.79,7.71-4.64c5.7-3.62,13.4-8.97,18.9-14.56.11-.1.2-.2.3-.3,6.67-6.87,7.69-13.19,9.15-18.69l22.67-11.24.59-.29s8.76,10.02,13.46,23.62c5.22,15.1,10.17,31.59,11.54,46.69,1.04,11.54,2.41,37.64,3,49.35l-57.68-.35Z"/>
          </g>
        </g>
      </g>
    </g>
  </g>
  <g>
    <path class="st12" d="M-904.55,604.84c-3.19,0-5.78-2.59-5.78-5.78v-110.01c0-11.41,2.01-22.54,5.99-33.09,4.72-12.6,12.29-24.3,21.91-33.81,14.06-13.94,31.78-22.96,51.24-26.08,29.49-4.72,60.52,5.24,81.64,26.38,8.24,8.24,14.81,17.82,19.53,28.46.1.21.22.49.34.79.14.3.27.62.39.93,2.05,4.85,3.69,9.95,4.9,15.16,1.6,6.89,1.46,14.04,1.46,21.26l.96,110.01c0,3.19-2.59,5.78-5.78,5.78h-176.79Z"/>
    <g>
      <path class="st10" d="M-727.57,489.52v110.01h-176.79v-110.01c0-10.93,1.97-21.39,5.62-31.05,4.51-12.05,11.59-22.86,20.57-31.74,12.8-12.7,29.48-21.5,48.09-24.48,4.6-.75,9.32-1.14,14.13-1.14,3.01,0,5.97.14,8.91.44,2.57.25,5.1.62,7.6,1.09,1.54.29,3.06.63,4.57,1,.04,0,.08.01.12.02,2.97.72,5.87,1.61,8.7,2.63,5.82,2.08,11.35,4.76,16.52,7.97,2.15,1.33,4.24,2.76,6.26,4.26,2.07,1.54,4.08,3.18,6.01,4.89,1.31,1.16,2.58,2.35,3.82,3.59,7.65,7.65,13.89,16.69,18.33,26.71.12.25.22.5.33.76.12.26.23.53.34.8,1.94,4.58,3.48,9.34,4.61,14.28,1.49,6.41,2.27,13.09,2.27,19.96Z"/>
      <g>
        <g>
          <polygon class="st14" points="-757.62 497.33 -756.4 484.56 -752.9 496.81 -739.6 497.16 -749.92 502.41 -746.77 514.83 -754.65 504.51 -762 516.06 -758.67 503.11 -771.79 501.71 -757.62 497.33"/>
          <path class="st14" d="M-791.9,409.27l3.15,12.43-7.87-10.33-7.35,11.55,3.32-12.95-13.12-1.4,14.17-4.37.15-1.55c1.54.29,3.06.63,4.57,1v.02h.12c2.97.72,5.87,1.61,8.7,2.63l-5.83,2.97Z"/>
          <polygon class="st14" points="-895.03 594.06 -893.64 599.53 -897.19 599.53 -899.76 596.16 -901.91 599.53 -904.36 599.53 -904.36 597.05 -903.77 594.76 -904.36 594.71 -904.36 589.49 -902.72 588.99 -901.5 576.22 -898 588.46 -884.7 588.81 -895.03 594.06"/>
          <polygon class="st14" points="-869.72 437.23 -871.51 424.52 -865.25 435.62 -852.24 432.86 -861.05 440.37 -855.09 451.72 -865.16 443.51 -869.61 456.46 -869.4 443.09 -882.49 444.79 -869.72 437.23"/>
        </g>
        <g>
          <path class="st4" d="M-738.74,591.9c0,2.81-2.28,5.08-5.08,5.08s-5.08-2.28-5.08-5.08,2.28-5.08,5.08-5.08c2.81,0,5.08,2.28,5.08,5.08Z"/>
          <path class="st4" d="M-823.18,430.56c0,2.81-2.28,5.08-5.08,5.08s-5.08-2.28-5.08-5.08,2.28-5.08,5.08-5.08,5.08,2.27,5.08,5.08Z"/>
          <path class="st4" d="M-775.63,513.53c0,2.81-2.28,5.08-5.08,5.08s-5.08-2.28-5.08-5.08,2.28-5.08,5.08-5.08,5.08,2.28,5.08,5.08Z"/>
          <path class="st4" d="M-883.85,466.63c0,2.81-2.28,5.08-5.08,5.08s-5.08-2.28-5.08-5.08,2.28-5.08,5.08-5.08c2.81,0,5.08,2.28,5.08,5.08Z"/>
        </g>
      </g>
      <g>
        <g>
          <g>
            <path class="st4" d="M-770.04,561.09c-.53,2.19-1.4,4.33-2.61,6.29-.18.3-.37.6-.55.9-6.66,10.76-13.71,21.54-21.86,31.26h-77.35c-3.9-2.83-7.17-6.5-9.53-10.78l-5.82-10.43-.62-1.12-15.99-28.71v-39.95c2.65-3.73,5.38-7.41,8.2-11.01,7.51-9.59,15.73-18.62,23.58-27.95,2.47-2.92,6.78-3.31,9.73-.9,2.7,2.21,3.35,6.05,1.53,9.02l-6.81,11.11,11.99,2.69,17.14,3.85,23,5.16c1.07.24,2.12.53,3.15.87.29.1.58.19.87.3.08.03.15.05.21.08,1.86.68,3.65,1.52,5.35,2.53.22.12.44.25.66.39.12.07.23.14.35.22,3.09,1.95,5.87,4.42,8.19,7.33.07.08.12.16.19.24l18.86,24.05,3.92,4.98c.88,1.12,1.64,2.29,2.25,3.54v.02c2.56,4.91,3.24,10.68,1.95,16.03Z"/>
            <path class="st13" d="M-872.5,495.48c-9.13,16.96-20.31,33.89-31,50.19-.29.45-.58.9-.87,1.35v-9.69c6.05-8.45,12.58-16.67,18.81-24.96,2.12-2.83,4.24-5.64,6.35-8.48,1.84-2.46,4.9-5.91,6.7-8.41Z"/>
            <path class="st13" d="M-898.29,509.31c-2.09,2.79-4.12,5.49-6.07,8.04v-4.05c1.32-1.78,2.68-3.61,4.08-5.48,12.69-16.98,23.42-30.42,23.98-30.01.55.41-9.3,14.52-21.98,31.49Z"/>
          </g>
          <g>
            <path class="st3" d="M-842.81,509c-5.34-5.03-13.38-5.61-20.71-5.55-3.32.03-7.31.53-8.75,3.53-1.2,2.5.18,5.65,2.44,7.26,2.26,1.61,5.14,2.03,7.91,2.24,3.25.24,6.51.24,9.76.02-3.52,1.89-5.73,5.54-7.24,9.24-1.31,3.19-2.21,6.78-1.15,10.06s4.74,5.89,7.98,4.7c2.04-.75,3.36-2.72,4.4-4.63,1.77-3.26,3.17-6.73,4.15-10.32.72,3.52,1.65,7.04,3.46,10.14s4.59,5.76,8.04,6.77c2.92.85,6.53.21,8.2-2.33,1.6-2.44.96-5.7-.17-8.4-1.47-3.52-3.66-6.74-6.39-9.39,3.08,1.2,6.76,2.63,10.03,3.09s6.77.1,9.56-1.66c1.38-.86,2.57-2.08,3.18-3.59s.55-3.32-.35-4.67c-.96-1.44-2.69-2.15-4.34-2.68-5.58-1.76-11.57-2.24-17.37-1.39-3.92-.64-8.71-1.79-12.63-2.43Z"/>
            <path class="st10" d="M-846.98,516.03c.53,3.33,3.12,6.24,6.36,7.14s6.97-.24,9.14-2.81c2.63-3.11,2.66-8.16-.01-11.23-5.46-6.27-16.83-1.56-15.49,6.9Z"/>
            <g>
              <path class="st3" d="M-810.8,597.38c-.41.93-1.09,1.63-1.92,2.15h-15.59c-1.93-.53-3.82-1.22-5.63-2.06-1.5-.68-2.95-1.47-4.33-2.36,1.1,1.2,2.21,2.43,3.21,3.72.19.23.38.46.55.7h-11.86c.02-1.32.12-2.64.3-3.95.03-.14.04-.28.06-.42-.06.14-.12.27-.18.39h0c-.63,1.42-1.37,2.74-2.22,3.98h-18.05c.44-1.88,1.35-3.68,2.38-5.35,2.58-4.19,6.41-6.56,10.48-9.11,0,0,.01,0,.01-.01.68-.4,1.37-.84,2.05-1.28-.41-.45-.83-.9-1.24-1.36-4.43-4.83-8.79-9.85-11.44-15.82-1.21-2.74-2.06-5.81-1.34-8.71.4-1.65,1.43-3.25,3.01-3.82,1.69-.61,3.58.12,5.11,1.09,5.1,3.21,8.03,8.92,10.21,14.55.94,2.44,1.79,4.9,2.53,7.41.61,1.98,1.14,3.97,1.61,5.98-.24-1.98-.48-3.98-.64-5.97-.27-3.55-.28-7.1.46-10.55,1.16-5.43,4.51-10.69,9.69-12.67,1.14-.42,2.4-.68,3.59-.39,2.1.51,3.43,2.62,4.05,4.69.82,2.78.74,5.75.26,8.61-1.12,6.76-4.58,13.1-9.58,17.79-1.09,1.04-2.26,1.99-3.51,2.86,1.21-.5,2.44-.99,3.68-1.45,2.38-.88,4.8-1.6,7.28-1.96,1.28-.19,2.59-.29,3.89-.26,2.55.05,5.09.59,7.33,1.78,3.39,1.79,6.03,5.26,6.19,9.09.05.92-.06,1.86-.43,2.7Z"/>
              <path class="st10" d="M-835.06,586.43c0,5.14-4.17,9.31-9.31,9.31s-9.31-4.17-9.31-9.31,4.17-9.31,9.31-9.31c5.14,0,9.31,4.17,9.31,9.31Z"/>
            </g>
            <g>
              <path class="st3" d="M-770.04,561.09c-.53,2.19-1.4,4.33-2.61,6.29-.18.3-.37.6-.55.9-1.34-1.68-2.51-3.53-3.69-5.42-.43-.67-.87-1.36-1.31-2.04-.45.42-.9.85-1.35,1.26-4.81,4.47-9.8,8.84-15.75,11.54-2.73,1.23-5.79,2.1-8.71,1.41-1.64-.4-3.25-1.41-3.82-3-.61-1.7.1-3.59,1.05-5.12,3.18-5.11,8.88-8.09,14.48-10.3,2.43-.97,4.89-1.83,7.4-2.6,1.96-.62,3.96-1.17,5.97-1.65-1.98.26-3.97.51-5.96.67-3.54.3-7.1.34-10.57-.38-3.57-.75-7.09-2.44-9.64-5-1.32-1.3-2.39-2.85-3.07-4.61-.44-1.14-.71-2.39-.43-3.57.5-2.11,2.6-3.46,4.67-4.09.93-.28,1.89-.46,2.86-.56,1.9-.19,3.85-.07,5.75.24,6.75,1.08,13.12,4.49,17.84,9.45,1.05,1.1,2.01,2.27,2.89,3.52-.51-1.22-1-2.45-1.46-3.69-.89-2.36-1.64-4.78-2.02-7.26-.03-.18-.06-.36-.09-.54l3.92,4.98c.88,1.12,1.64,2.29,2.25,3.54v.02c2.56,4.91,3.25,10.68,1.96,16.03Z"/>
              <path class="st10" d="M-770.04,561.09c-1.54,1.16-3.44,1.84-5.5,1.86-.46,0-.91-.03-1.35-.1-.94-.12-1.83-.39-2.66-.78-3.06-1.45-5.22-4.5-5.36-8.07,0-.1,0-.2,0-.31,0-.21,0-.44.02-.67.26-4.23,3.35-7.68,7.41-8.52.46-.09.93-.14,1.43-.17.12-.01.25-.01.4-.01,1.3-.01,2.54.25,3.67.72v.02c2.56,4.91,3.25,10.68,1.96,16.03Z"/>
            </g>
          </g>
        </g>
        <g>
          <g>
            <g>
              <path class="st13" d="M-763.29,418.53c-3.92,3.74-8.02,7.6-12.19,11.5-.12.12-.26.25-.4.38l-.38.35c-6.39,5.99-12.91,12.03-19.14,17.79-.53.48-1.06.97-1.58,1.45-5.66,5.21-11.06,10.16-15.88,14.57-5.21,4.78-9.75,8.9-13.23,12.05-.19.17-.39.35-.57.52-.08.07-.14.12-.22.2-2.56,2.31-4.46,4.04-5.52,4.98h0c-.63.57-.95.87-.95.87l-6.65-6.86s.12-.11.35-.31c1.73-1.57,9.83-8.85,20.87-18.68,1.25-1.12,2.54-2.26,3.87-3.45h0c.16-.14.33-.29.48-.44h0c.23-.2.46-.4.69-.62,6.94-6.15,14.71-13.01,22.65-19.95.4-.36.82-.72,1.23-1.09h0c.15-.14.31-.27.47-.41h0c6.65-5.81,13.37-11.64,19.77-17.11,2.15,1.33,4.24,2.76,6.26,4.26Z"/>
              <path class="st14" d="M-812.84,464.56c-12.03,11.01-20.49,18.62-20.49,18.62l-6.64-6.86s8.72-7.87,21.22-18.98c.04.04.07.07.11.11,2.07,2.25,4.01,4.63,5.8,7.12Z"/>
            </g>
            <path class="st4" d="M-832.2,482.88c.19.74.25,1.49.23,2.24-.08,2.24-1,4.46-2.4,6.23-1.85,2.37-4.45,4.04-7.12,5.42-5.17,2.68-11.23,4.45-16.83,2.78,2.31-2.03,1.94-5.63,2.24-8.7.33-3.4,1.76-6.67,3.99-9.24.42-.5.88-.97,1.37-1.4,3.01-2.72,7.05-4.25,11.1-4.2,2.34,1.92,6.14,3.52,7.25,6.3.07.18.13.37.18.56Z"/>
          </g>
          <path class="st3" d="M-831.97,485.12c-.08,2.24-1,4.46-2.4,6.23-1.85,2.37-4.45,4.04-7.12,5.42-5.17,2.68-11.23,4.45-16.83,2.78,2.31-2.03,1.94-5.63,2.24-8.7.33-3.4,1.76-6.67,3.99-9.24.23.1.45.23.67.36,4.62,2.79,4.47,8.37,11.47,6.02,2.34-.78,4.5-2.12,6.9-2.7.35-.08.72-.14,1.08-.18Z"/>
          <g>
            <path class="st8" d="M-727.57,489.52v17.82c-2.44-.19-4.64-.55-6.46-1.1-12.16-3.67-33.85-12.45-37.04-13.75-.26-.11-.4-.16-.4-.16,0,0-39.76,16.41-41.51,12.84-.19-.39-.17-.88.03-1.43t0-.02c.6-1.64,2.7-3.9,5.38-6.26,4.77-4.2,11.35-8.69,14.41-10.46,4.38-2.54,13.8-7.09,17.1-8.67.26-.12.48-.22.65-.31.33-.15.51-.24.51-.24,0,0-.16,0-.46.02-.32,0-.79.01-1.38.03-4.5.14-15.82.61-17.27,1.69-1.82,1.35-20.46,18.02-25.52,13.38-1.02-.93-.2-3.21,1.31-5.8,2.85-4.88,8.18-10.87,8.18-10.87,0,0-.11.05-.31.12h0s0,.01,0,.01h0c-.35.14-.93.36-1.68.63-3.88,1.4-12.26,3.95-14.36.94-.15-.22-.23-.49-.23-.8-.12-2.92,5.55-9.74,11.43-15.66,4.09-4.12,8.28-7.81,10.69-9.44.49-.34.91-.58,1.23-.73-.02,0-.07.02-.12.03-.94.24-6.07,1.53-10.98,2.12,0,0,0,.01,0,0-5.03.63-9.85.52-9.75-2.16.16-4.32,21.16-15.02,34.33-19.5h0c3.82-1.3,6.98-2.07,8.79-2.01,1.48.05,3.24.27,5.14.63,8.4,1.54,19.63,5.53,22.13,7.7,1.71,1.46,10.35,9.48,18.95,16.39.12.26.23.53.34.8,1.94,4.58,3.48,9.34,4.61,14.28,1.49,6.4,2.27,13.09,2.27,19.96Z"/>
            <path class="st13" d="M-734.46,455.29c-3.67-2.63-7.25-5.36-9.78-7.66-2.63-2.39-4.61-4.3-6.2-5.83-3.03-2.91-4.56-4.37-6.14-4.97-3.08-1.16-13.14-4.7-19.67-6.08-2-.43-3.68-.65-4.72-.54-2.18.23-5.71,1.15-10.08,2.67-5.12,1.79-11.39,4.41-17.96,7.75-8.81,4.48-13.73,7.36-14.52,9.79-.2.64-.14,1.25.22,1.95.64,1.24,4.8,1.12,9.6.46,3.58-.49,7.53-1.29,10.62-2.04.19-.05.4.05.48.22.03.03.04.07.05.11.06.23-.09.47-.32.53-.38.1-.95.22-1.66.39-.07.02-.15.03-.21.05-2.47.55-6.43,1.38-10.15,1.81-4.36.5-8.38.48-9.2-1.13-.46-.9-.55-1.75-.27-2.61.88-2.74,5.72-5.61,14.94-10.3,7.72-3.92,14.72-6.74,20.09-8.48,3.56-1.17,6.41-1.84,8.26-2.04,1.23-.12,3.24.16,5.59.69,7.69,1.71,19.06,5.92,19.21,5.98,1.74.67,3.31,2.17,6.43,5.16,1.59,1.52,3.56,3.42,6.18,5.81,2.24,2.03,5.3,4.4,8.52,6.74.12.25.22.5.33.76.12.26.23.53.34.8Z"/>
            <path class="st13" d="M-822.58,479.95c-1.64,0-2.96-.32-3.57-1.13-2.1-2.78-.13-6.49,7.52-14.16,10-10.03,13.19-12.32,15.15-13.3,1.38-.69,30.88-10.39,32.14-10.8.23-.08.48.05.55.28.07.23-.05.48-.28.55-10.61,3.49-30.96,10.22-32.02,10.75-2.59,1.29-6.91,5.1-14.92,13.13-8.18,8.2-8.91,11.06-7.44,13.01,1.49,1.97,11.1-.23,14.42-2.41.2-.13.47-.08.61.13.13.2.07.47-.13.61-2.22,1.45-8.07,3.33-12.03,3.33Z"/>
            <path class="st13" d="M-817.33,494.4c-.24,0-.46-.02-.68-.05-.83-.14-1.47-.55-1.89-1.22-2.91-4.6,7.56-16.35,17-26.08.98-1.01,1.68-1.73,1.99-2.09,2.19-2.54,30.29-8.52,33.49-9.2.23-.05.47.1.52.34.05.24-.1.47-.34.52-12.44,2.62-31.5,7.16-33.01,8.91-.33.38-1.04,1.11-2.03,2.13-4.9,5.04-19.81,20.39-16.89,25,.29.45.71.72,1.3.82,4.39.74,15.46-7.99,20.77-12.2,2.41-1.91,3.27-2.57,3.63-2.66,1.32-.31,18.42-1.24,19.15-1.27.23-.04.45.17.46.41.01.24-.17.45-.41.46-4.93.27-17.96,1.01-18.99,1.25-.27.1-1.74,1.26-3.29,2.49-5.57,4.4-15.72,12.42-20.79,12.43Z"/>
            <path class="st13" d="M-811.54,505.95c-.9,0-1.51-.16-1.78-.5-.44-.57-.6-1.23-.47-1.98.57-3.29,6.62-7.79,15.53-13.54,8.92-5.75,22.14-12.41,22.27-12.47.22-.11.48-.02.59.2.11.22.02.48-.19.59-.13.07-13.31,6.7-22.19,12.43-7.18,4.63-14.6,9.79-15.14,12.95-.09.5.01.92.3,1.3,1.38,1.8,21.93-5.2,41-12.98.22-.09.48.02.57.24.09.22-.02.48-.24.57-5.87,2.4-32.77,13.2-40.24,13.2Z"/>
          </g>
        </g>
        <g>
          <path class="st13" d="M-873.44,530.09c-3.99,4.91-6.47,10.76-8.12,16.18-1,3.3-1.68,6.43-2.2,9.1-.56,2.93-1.04,5.92-1.49,8.83-.04.28-.09.55-.12.83-.04.23-.07.46-.11.69-.65,4.16-1.32,8.41-2.27,12.59l-.62-1.12c.83-3.8,1.44-7.67,2.03-11.45.05-.28.09-.56.13-.84.04-.26.09-.53.12-.8.45-2.93.92-5.94,1.49-8.89.52-2.68,1.2-5.82,2.21-9.12,1.67-5.53,4.2-11.51,8.28-16.54.15-.18.41-.21.6-.07s.2.41.06.6Z"/>
          <path class="st13" d="M-886.35,567.88c.38-2.12-.42-4.29-1.55-6.12s-2.59-3.44-3.76-5.25c-3.47-5.38-4.05-12.51-1.48-18.37,3.89,2.3,6.44,6.56,7.26,11.01.82,4.45.37,9.02-.09,13.52-.18,1.75-.21,3.47-.38,5.22Z"/>
          <path class="st13" d="M-885.86,565.82c1.33-3.4,2.43-6.91,4.11-10.15s4.01-6.27,7.2-8.05c1.38-.77,2.89-1.29,4.39-1.81.56-.19,1.18-.33,1.81-.46,1.25-.26,2.21,1.03,1.66,2.18-.05.11-.11.23-.15.35-2.54,6.38-7.03,11.97-12.71,15.82-1.72,1.16-4.28,1.62-6.29,2.12Z"/>
          <path class="st13" d="M-882.32,546.86c-.93-9.4,3.38-19.15,10.95-24.79.77.43,1.03,1.28,1.18,2.15.79,4.44-.34,9.08-2.57,13.01-2.23,3.92-5.99,6.9-9.57,9.64Z"/>
        </g>
      </g>
      <path class="st7" d="M-770.04,561.09c-.53,2.19-1.4,4.33-2.61,6.29-.18.3-.37.6-.55.9-6.66,10.76-13.71,21.54-21.86,31.26h-40.57c.19-.23.39-.46.58-.7.39-.45.75-.91,1.13-1.36,3.55-4.38,6.9-8.98,10.03-13.66,1.66-2.48,3.26-4.97,4.79-7.48,3.67-5.98,6.99-12.18,9.87-18.58,1.49-3.31,2.88-6.68,4.13-10.11,1.54-4.21,2.89-8.51,4.03-12.84,1.94-7.41,3.26-14.96,3.85-22.58.07.08.12.16.19.24l18.86,24.05,3.92,4.98c.88,1.12,1.64,2.29,2.25,3.54v.02c2.56,4.91,3.25,10.68,1.96,16.03Z"/>
      <g>
        <g>
          <g>
            <g>
              <g>
                <rect class="st14" x="-804.88" y="536.63" width="13.29" height="13.01" transform="translate(-299.2 -283.39) rotate(-24.65)"/>
                <path class="st11" d="M-806.99,540s3.76,1,7.04-.76,5.04-4.79,5.04-4.79l-12.08,5.54Z"/>
                <line class="st2" x1="-805.94" y1="539.91" x2="-800.59" y2="551.57"/>
                <line class="st2" x1="-803.82" y1="538.93" x2="-798.47" y2="550.6"/>
                <line class="st2" x1="-801.7" y1="537.96" x2="-796.35" y2="549.63"/>
                <line class="st2" x1="-799.58" y1="536.99" x2="-794.23" y2="548.65"/>
                <line class="st2" x1="-797.46" y1="536.02" x2="-792.11" y2="547.68"/>
                <line class="st2" x1="-795.34" y1="535.04" x2="-789.98" y2="546.71"/>
              </g>
              <g>
                <polygon class="st3" points="-778.34 548.18 -807.65 561.62 -801.56 551.83 -789.48 546.28 -778.34 548.18"/>
                <polygon class="st5" points="-778.34 548.18 -807.65 561.62 -801.56 551.83 -789.48 546.28 -778.34 548.18"/>
                <path class="st3" d="M-807.65,561.62l14.99,32.67c1.53,3.33,5.46,4.8,8.8,3.29l19.07-8.66c3.49-1.58,4.93-5.79,3.13-9.17l-16.69-31.57-29.31,13.45Z"/>
              </g>
            </g>
            <polygon class="st11" points="-763.08 576.61 -794.54 590.7 -804.45 569.1 -774.55 554.92 -763.08 576.61"/>
          </g>
          <path class="st3" d="M-786.6,566.24s-1.27,15.13,5.18,11.9c6.46-3.22-5.18-11.9-5.18-11.9Z"/>
        </g>
        <g>
          <g>
            <g>
              <g>
                <rect class="st14" x="-757.17" y="516.96" width="14.65" height="14.34" transform="translate(-100.87 -120.7) rotate(-9.86)"/>
                <path class="st11" d="M-758.29,518.33s3.73,2.12,7.72,1.17c3.99-.95,6.71-3.68,6.71-3.68l-14.43,2.51Z"/>
                <line class="st0" x1="-757.15" y1="518.53" x2="-754.73" y2="532.46"/>
                <line class="st0" x1="-754.62" y1="518.09" x2="-752.2" y2="532.02"/>
                <line class="st0" x1="-752.09" y1="517.65" x2="-749.66" y2="531.58"/>
                <line class="st0" x1="-749.55" y1="517.21" x2="-747.13" y2="531.14"/>
                <line class="st0" x1="-747.02" y1="516.77" x2="-744.6" y2="530.7"/>
                <line class="st0" x1="-744.49" y1="516.33" x2="-742.06" y2="530.26"/>
              </g>
              <g>
                <polygon class="st3" points="-730.07 535.1 -765.08 541.18 -755.84 532.46 -741.4 529.95 -730.07 535.1"/>
                <polygon class="st5" points="-730.07 535.1 -765.08 541.18 -755.84 532.46 -741.4 529.95 -730.07 535.1"/>
                <path class="st3" d="M-727.57,545.87v36.53l-22.27,3.78c-3.98.67-7.76-1.99-8.46-5.97l-.76-4.39-4.49-25.8-1.53-8.82h0s0-.01,0-.01l35-6.08,1.93,8.28.58,2.49Z"/>
              </g>
            </g>
            <polygon class="st13" points="-727.57 544.88 -727.57 570.62 -759.06 575.81 -759.29 575.84 -763.77 550.05 -763.55 550.01 -728.15 543.38 -727.93 543.34 -727.57 544.88"/>
          </g>
          <path class="st3" d="M-743.95,552.02s-5.61,15.76,2.18,14.14c7.79-1.62-2.18-14.14-2.18-14.14Z"/>
        </g>
      </g>
    </g>
  </g>
  <g>
    <path class="st12" d="M-675.76,606.88c-3.19,0-5.78-2.59-5.78-5.78v-110.01c0-41.54,28.45-79.29,68.44-90.61,38.42-10.88,79.83,4.45,102.85,36.92,19.89,28.05,17.06,58.38,17.06,90.72v72.98c0,3.19-2.59,5.78-5.78,5.78h-176.79Z"/>
    <g>
      <path class="st9" d="M-498.47,491.09v110.01h-176.79v-110.01c0-10.93,1.98-21.39,5.62-31.05,1.59-4.25,3.5-8.3,5.7-12.2v-.04c2.29-4.09,4.91-7.99,7.82-11.64.75-.96,1.54-1.91,2.35-2.84,1.49-1.73,3.06-3.41,4.69-5.02,10.45-10.36,23.48-18.14,38.05-22.26.7-.2,1.42-.39,2.13-.57.17-.04.35-.09.52-.12.61-.16,1.22-.31,1.83-.44.61-.14,1.22-.27,1.84-.39.52-.11,1.05-.21,1.58-.32.71-.12,1.43-.25,2.14-.37,1.53-.25,3.07-.46,4.63-.63,3.12-.34,6.29-.51,9.5-.51,3.01,0,5.97.14,8.91.44,2.57.25,5.11.62,7.6,1.09,1.54.29,3.06.63,4.57,1,.04,0,.08.01.12.02,2.97.72,5.87,1.61,8.7,2.63.77.28,1.53.56,2.29.86,4.98,1.95,9.74,4.33,14.23,7.11,2.15,1.33,4.24,2.76,6.26,4.26,2.07,1.54,4.08,3.18,6.01,4.89,1.31,1.16,2.58,2.35,3.82,3.59,5.09,5.09,9.55,10.79,13.26,16.98,1.89,3.12,3.57,6.38,5.07,9.73.12.25.22.5.33.76.12.26.23.53.34.8,1.51,3.57,2.78,7.27,3.82,11.07.28,1.06.55,2.13.8,3.21,1.49,6.41,2.28,13.09,2.28,19.96Z"/>
      <g>
        <g>
          <circle class="st3" cx="-529.32" cy="441.02" r="4.92"/>
          <path class="st3" d="M-560.8,589.57c0,2.72-2.2,4.92-4.92,4.92s-4.92-2.2-4.92-4.92,2.2-4.92,4.92-4.92c2.72,0,4.92,2.2,4.92,4.92Z"/>
          <circle class="st3" cx="-625.98" cy="418.15" r="4.92"/>
          <circle class="st3" cx="-651.31" cy="569.4" r="4.92"/>
        </g>
        <g>
          <path class="st10" d="M-554.68,408.73c-2.54,3.88-7.26,6.3-11.67,8.2l-3.76,1.41c-8.01,2.85-16.95,4.23-24.96,1.37-6.41-2.29-11.89-7.88-13.31-14.35,2.43-.62,4.88-1.12,7.39-1.52,1.53-.25,3.07-.46,4.63-.63,3.12-.34,6.29-.51,9.5-.51,3.01,0,5.97.14,8.91.44,2.57.25,5.11.62,7.6,1.09,1.54.29,3.06.63,4.57,1,.04,0,.08.01.12.02,2.97.72,5.87,1.61,8.7,2.63.77.28,1.53.56,2.29.86Z"/>
          <path class="st11" d="M-501.55,467.92c-.67.56-1.29,1.2-1.83,1.93-3.48,4.71-2.45,11.6-5.7,16.46-2,2.99-5.58,4.86-9.18,4.79-3.6-.07-7.11-2.08-8.99-5.15-3.05-4.99-1.62-11.42.12-17.01l1.37-3.78c2.96-7.76,7.57-15.31,14.67-19.59,1.89,3.12,3.57,6.38,5.07,9.73.12.25.22.5.33.76.12.26.23.53.34.8,1.51,3.57,2.78,7.27,3.81,11.07Z"/>
          <path class="st4" d="M-658.5,542.53c-1.7,8.16-8.5,15.63-16.77,16.11v-54.75c4.36,1.93,7.49,6.38,10.05,10.59l1.92,3.54c3.93,7.53,6.53,16.2,4.81,24.52Z"/>
        </g>
      </g>
      <g>
        <g>
          <g>
            <polygon class="st4" points="-529.8 601.1 -546.11 601.1 -548.32 595.47 -550.67 589.47 -553.05 583.36 -553.59 581.99 -556.72 574.01 -557.25 572.65 -557.28 572.57 -560.57 564.18 -561.32 562.29 -561.38 562.13 -550.85 555.34 -548.88 559.62 -548.02 561.51 -546.39 565.04 -546.09 565.7 -545.94 566.02 -544.21 569.77 -544.01 570.22 -543.39 571.56 -542.38 573.76 -541.77 575.07 -539.4 580.23 -538.64 581.89 -529.8 601.1"/>
            <polygon class="st13" points="-542.33 573.72 -553.61 582.01 -557.28 572.66 -543.95 570.21 -542.33 573.72"/>
          </g>
          <g>
            <polygon class="st4" points="-619.25 557.72 -619.89 574.87 -619.96 576.85 -620.27 585.1 -620.31 586.11 -620.34 586.92 -620.87 601.1 -635.71 601.1 -635.11 594.67 -634.58 589.17 -634.49 588.26 -633.68 579.78 -633.5 577.78 -631.72 559.03 -619.25 557.72"/>
            <polygon class="st13" points="-620.27 585.1 -620.34 586.92 -635.11 594.67 -634.49 588.26 -620.27 585.1"/>
          </g>
          <g>
            <path class="st4" d="M-574.8,601.1h-15.89c-.34-3.23-.78-7.48-1.31-12.55-.26-2.47-.54-5.12-.83-7.95-.01-.12-.03-.25-.04-.39-.3-2.82-.61-5.81-.93-8.94-.07-.64-.14-1.3-.2-1.96-1.64-15.6-3.61-34.53-5.66-54.17-.5-4.81-1.01-9.65-1.52-14.51-.31-2.98-.62-5.95-.92-8.92-.82-7.8-1.63-15.57-2.41-23.11-.49-4.66-.97-9.25-1.43-13.7-1.08-10.3-2.09-19.95-2.98-28.49h0c-.81-7.85-1.53-14.76-2.11-20.36,3.27-.92,6.62-1.67,10.04-2.22,1.53-.25,3.07-.46,4.63-.63l2.28,20.91,2.7,24.81h0s1.06,9.72,1.06,9.72l.7,6.4.12,1.17,1.98,18.21,1.49,13.65,3.15,28.91,4.26,39.02.21,1.98.97,8.91.05.44.18,1.74,2.4,22.01Z"/>
            <path class="st13" d="M-577.19,578.65l-14.81,9.46c-.26-2.47-.54-5.12-.83-7.95l15.45-3.26.18,1.74Z"/>
          </g>
        </g>
        <g>
          <path class="st3" d="M-541.5,416.3l1.04,143.59-7.56,1.61-12.55,2.68-17.83,3.8-15.4,3.29-26.16,5.58-13.72,2.93-15.89,3.39-9.28,1.98-.07-1.9-1.26-34-3.77-101.4v-.04c2.29-4.09,4.91-7.99,7.82-11.64.75-.96,1.54-1.91,2.35-2.84l44.85-6.92h0s14.84-2.29,14.84-2.29l52.59-7.81Z"/>
          <path class="st10" d="M-540.45,516.82v43.08l-109.12,23.27-9.28,1.98-1.33-35.9,2.39-3.67c1.69-5.86,6.19-10.84,11.87-13.07,5.67-2.24,12.37-1.71,17.61,1.41,1.79,1.07,4.08,2.44,5.76,1.2.94-.69,1.24-1.96,1.54-3.09,1.77-6.63,6.42-12.56,12.71-15.31,6.28-2.74,14.11-1.98,19.4,2.41,5.51,4.57,7.58,11.98,11.52,17.96.64.96,1.37,1.94,2.39,2.49,1.72.93,3.92.48,5.56-.58,1.64-1.07,2.86-2.65,4.11-4.14,5.24-6.25,11.64-11.51,18.77-15.44,1.91-1.05,3.98-2.02,6.09-2.6Z"/>
          <path class="st8" d="M-649.58,583.17l-9.28,1.98-.07-1.9-1.26-34-3.77-101.4v-.04c2.29-4.09,4.91-7.99,7.82-11.64l4.45,99.87,2.01,45.22.09,1.92Z"/>
          <g>
            <circle class="st4" cx="-577.86" cy="455.61" r="15.08"/>
            <path class="st14" d="M-642.72,463.34c3.41-.15,6.51,1.79,9.5,3.44.57.31,1.17.62,1.82.59,1.09-.05,1.88-1.02,2.51-1.9,3.19-4.42,6.61-9.04,11.58-11.27,4.98-2.23,11.95-1,14.16,3.99.97,2.19,1.69,5.43,4.08,5.27.78-.05,1.47-.52,2.11-.98,2.67-1.91,5.46-3.96,8.73-4.33,3.27-.37,7.06,1.72,7.24,5-.15,1.45-1.94,2.02-3.38,2.25-16.22,2.57-32.44,5.14-48.66,7.71-3.47.55-18.8,5-20.46,1.4-2.09-4.55,7.03-11.18,10.77-11.18Z"/>
            <path class="st14" d="M-607.96,490.23c3.41-.15,6.51,1.79,9.5,3.44.57.31,1.17.62,1.82.59,1.09-.05,1.88-1.02,2.51-1.9,3.19-4.42,6.61-9.04,11.58-11.27,4.98-2.23,11.95-1,14.16,3.99.97,2.19,1.69,5.43,4.08,5.27.78-.05,1.47-.52,2.11-.98,2.67-1.91,5.46-3.96,8.73-4.33,3.27-.37,7.06,1.72,7.24,5-.15,1.45-1.94,2.02-3.38,2.25-16.22,2.57-32.44,5.14-48.66,7.71-3.47.55-18.8,5-20.46,1.4-2.09-4.55,7.04-11.18,10.77-11.18Z"/>
          </g>
        </g>
        <polygon class="st4" points="-501.86 549.52 -501.86 560.68 -660.73 594.79 -661.4 583.78 -501.86 549.52"/>
        <polygon class="st3" points="-661.4 583.78 -668.28 584.9 -668.04 595.97 -660.73 594.79 -661.4 583.78"/>
      </g>
      <g>
        <g>
          <g>
            <path class="st13" d="M-498.47,500.2v5.67c-2.08-1.45-4.16-2.89-6.24-4.33-.14-.11-.3-.2-.44-.31-3.25-2.26-6.49-4.52-9.74-6.77-1.73-1.2-3.5-2.4-5.25-3.58-2.4-1.63-4.8-3.27-7.13-4.98-1.18-.88-2.36-1.76-3.51-2.68-.03-.03-.05-.05-.08-.07-1.14-.92-2.31-1.81-3.42-2.77-1.77-1.49-3.54-2.99-5.43-4.32-.33-.23-.65-.46-.98-.69-.12-.09-.25-.17-.38-.26-1.96-1.4-3.87-2.74-5.69-4.03-.07-.06-.14-.11-.22-.15-.12-.1-.25-.18-.38-.27-1.09-.77-2.13-1.51-3.14-2.23-.46-.33-.92-.65-1.37-.97-.67-.47-1.31-.93-1.94-1.38-.04-.04-.08-.07-.12-.09-.36-.25-.7-.5-1.04-.75-.81-.57-1.56-1.11-2.25-1.61-.35-.25-.68-.49-1-.71-.32-.23-.63-.44-.92-.65-.39-.27-.74-.53-1.08-.77-1.01-.73-1.78-1.28-2.26-1.64h-.01s-.06-.04-.09-.07c-.1-.07-.18-.12-.25-.17-.16-.12-.24-.17-.24-.17l2.96-4.43s.01.01.04.03c.02.01.05.03.09.06.02.02.03.03.05.04.01.01.02.02.04.03.2.14.53.39.99.71.14.11.32.22.49.36.63.45,1.42,1.02,2.34,1.7.39.29.81.59,1.25.9.06.04.12.09.19.14.51.38,1.05.77,1.62,1.17.38.27.76.56,1.17.85.34.26.68.51,1.04.77.07.04.14.09.19.14.42.31.86.63,1.3.94.67.48,1.36.98,2.06,1.5.75.56,1.53,1.13,2.33,1.71.1.08.2.14.3.21.14.11.28.21.42.31.47.35.94.69,1.43,1.04.04.04.08.06.12.09.03.03.07.06.11.08.17.14.35.26.52.39.03.02.05.04.08.06.28.21.57.41.85.63,2.99,2.2,6.14,4.53,9.34,6.92.37.27.74.54,1.11.82.24.17.49.36.74.55.03.02.06.04.09.07.06.04.12.09.19.14.16.12.38.28.64.47,2.38,1.75,8.84,6.49,16.19,11.87,2.27,1.68,4.63,3.41,6.99,5.13.12.09.25.17.37.26.15.12.3.22.44.33,2.22,1.63,4.42,3.24,6.52,4.78Z"/>
            <path class="st14" d="M-550.5,468.44c-7.42-5.27-12.57-8.98-12.57-8.98l2.96-4.43s5.32,3.83,12.85,9.34c-.02.03-.03.05-.05.07-.99,1.39-2.05,2.73-3.2,4Z"/>
          </g>
          <path class="st13" d="M-559.9,455.17h0c-.77,1.51-1.2,3.77-2.58,4.7h-.01c-.09.06-.17.12-.28.16-.38.19-.78.32-1.19.39-1.23.21-2.55-.03-3.68-.58-1.14-.55-2.1-1.38-2.97-2.3-.29-.31-.56-.63-.83-.95-2.07-2.51-3.75-5.6-3.5-8.85,1.38,1.02,3.29.39,5.01.2,1.89-.22,3.84.17,5.5,1.09.14.08.27.14.4.24.18.1.36.21.53.34,1.83,1.33,3.14,3.35,3.59,5.56Z"/>
        </g>
        <g>
          <g>
            <path class="st8" d="M-538.5,548.58s-20.82-56.24-22.14-59.03c-1.31-2.79-2.13-4.76-.33-6.39,1.8-1.64,4.59-.66,4.59-.66,0,0,.33-3.77,3.11-5.74,2.79-1.97,4.1-1.8,4.1-1.8,0,0,0-2.3,3.28-5.08,3.28-2.79,3.61-1.97,3.61-1.97,0,0-2.62-3.77,2.13-6.89,4.76-3.11,13.28,2.95,20.82,11.97s12.95,18.2,13.61,20.49c.66,2.3,4.26,41.98,4.26,41.98l-37.05,13.12Z"/>
            <g>
              <path class="st13" d="M-548.38,522.3c-.14,0-.28-.09-.34-.23-.1-.27-10.22-26.71-11.31-29.38-.12-.28-.24-.58-.38-.91-1.21-2.85-3.04-7.15-.78-8.9,2.52-1.95,5.37-1.65,8.48.91,3.44,2.83,5.52,5.85,5.6,5.98.11.17.07.39-.1.5-.16.11-.39.07-.5-.1-.02-.03-2.1-3.07-5.46-5.83-2.85-2.35-5.34-2.64-7.58-.9-1.82,1.41-.12,5.4,1,8.05.14.33.27.63.39.92,1.1,2.68,11.21,29.13,11.32,29.4.07.19-.02.39-.21.47-.04.02-.09.02-.13.02Z"/>
              <path class="st13" d="M-538.79,485.16c-.12,0-.23-.06-.3-.17-.05-.07-4.78-7.47-6.2-8.65-1.34-1.12-3.01-1.52-6.75.17-3.56,1.61-3.84,5.2-3.85,5.35-.01.2-.17.33-.38.34-.2-.01-.35-.18-.34-.38.01-.17.31-4.17,4.27-5.96,3.5-1.58,5.68-1.6,7.51-.07,1.5,1.25,6.15,8.51,6.35,8.81.11.17.06.39-.11.5-.06.04-.13.06-.19.06Z"/>
              <path class="st13" d="M-528.46,480.12c-.11,0-.23-.05-.3-.15-1.94-2.76-7.23-10.11-8.41-10.99-1.28-.96-2.72-2.04-7.12.28-4.18,2.21-4.51,5.59-4.52,5.73-.02.2-.17.35-.39.33-.2-.02-.35-.19-.33-.39.01-.16.35-3.91,4.91-6.32,4.44-2.34,6.2-1.48,7.89-.21,1.5,1.13,8.28,10.74,8.56,11.15.11.16.08.39-.09.5-.06.05-.14.07-.21.07Z"/>
              <path class="st13" d="M-505.22,497.46c-.19,0-.35-.15-.36-.34,0-.02-.12-2.43-.48-3.51-.36-1.11-1.92-5.27-6.95-12.03-5.05-6.78-12.35-14.56-14.21-16.18l-.13-.11c-1.84-1.6-7.43-6.45-12.16-4.38-1.37.6-2.28,1.48-2.7,2.61-.76,2.02.25,4.21.26,4.24.08.18,0,.39-.17.48-.18.08-.39,0-.48-.17-.05-.1-1.15-2.48-.29-4.79.5-1.33,1.54-2.35,3.09-3.03,5.14-2.26,11,2.83,12.92,4.5l.12.11c1.88,1.63,9.24,9.47,14.32,16.29,5.11,6.85,6.7,11.1,7.06,12.24.38,1.18.5,3.6.51,3.7,0,.2-.14.37-.34.38,0,0-.01,0-.02,0Z"/>
            </g>
          </g>
          <g>
            <polygon class="st3" points="-498.47 533.01 -498.47 601.1 -535.2 601.1 -543.35 574.47 -544.62 570.34 -544.75 569.89 -545.94 566.02 -546.04 565.69 -546.25 564.99 -547.36 561.37 -547.96 559.42 -550.47 551.21 -540.54 547.73 -540.45 547.7 -539.02 547.2 -501.58 534.09 -498.47 533.01"/>
            <path class="st13" d="M-501.86,550.13l3.38-1.13v.76l-3.38,1.13-44.19,14.8h-.05s-.34.13-.34.13c-.04.01-.08.02-.12.02-.14,0-.29-.1-.34-.25-.07-.18.04-.39.23-.45l.26-.09.14-.05,44.4-14.86Z"/>
            <path class="st13" d="M-498.47,537.19v6.15c-1.22-.5-2.07-1.69-2.07-3.07,0-1.4.85-2.58,2.07-3.07Z"/>
          </g>
        </g>
      </g>
    </g>
  </g>
  <g>
    <path class="st18" d="M-327.76-178.85c2.27.07,4.82.03,7.11.04-.07,7.37-.09,14.74-.05,22.1,0,3.21.19,8.82-.1,11.83,1.79-2.35,3.78-4.54,5.95-6.54,7.74-7.02,17.99-10.62,28.42-9.98,19.45,1.05,35.37,16.4,36.57,35.84.07,1.18.08,2.2.01,3.38-2.2,1.09-4.49,2.33-6.68,3.47.04-4.01.13-7.82-.92-11.72-3.63-13.52-14.58-22.94-28.57-24.02-22.73-1.76-39.43,18.91-33.54,40.73,2.58,9.56,8.48,15.52,16.8,20.42-2.3.95-4.89,2.36-7.13,3.52-3.95-2.52-5.97-4.48-8.97-7.95-.68-.83-1.3-1.67-1.95-2.53.29,1.87.12,9.45.12,11.73v19.44c0,3.96-.09,8.39.12,12.31-2.34-2.78-4.97-6.31-7.11-9.24-.32-2.43-.18-9.86-.16-12.61.06-7.07-.12-14.35-.01-21.4-5.3,7.06-11.87,12.35-20.46,14.85-5.11,1.49-9.73,2.14-15.08,1.62-10.36-1-19.91-6.05-26.55-14.07-13.6-16.63-11.32-41.68,5.53-55.2,8.06-6.52,18.39-9.55,28.7-8.42,12.18,1.38,20.34,6.73,27.85,16.15-.08-8.53.09-17.1.02-25.64-.02-2.68-.03-5.46.1-8.13Z"/>
    <path class="st15" d="M-362.01-154.56c17.75-1.19,33.1,12.25,34.26,30,1.16,17.75-12.32,33.07-30.07,34.19-17.71,1.12-32.98-12.31-34.13-30.01-1.15-17.7,12.24-32.99,29.95-34.18Z"/>
  </g>
</svg>