<?xml version="1.0" encoding="UTF-8"?>
<svg id="Layer_1" xmlns="http://www.w3.org/2000/svg" version="1.1" viewBox="0 0 241 197">
  <!-- Generator: Adobe Illustrator 30.3.0, SVG Export Plug-In . SVG Version: 2.1.3 Build 182)  -->
  <defs>
    <style>
      .st0 {
        fill: #0e103f;
      }
    </style>
  </defs>
  <g>
    <path class="st0" d="M149.62,150.73c-1.43-.32-3.29-.31-4.71.03-6.08,1.45-9.29,6.97-9.14,12.98.1,3.91,1.41,7.34,4.39,9.63,2.98,2.28,7,2.97,10.57,1.53,5.13-2.07,7.69-6.91,7.66-12.52-.04-5.65-3.28-10.41-8.77-11.64ZM149.2,172.58c-3.15,1.06-6.21-.46-8.09-2.91-3.51-4.58-2.4-13.92,3.66-16.1,3.32-1.19,6.89.52,8.69,3.51,3.02,5,1.5,13.57-4.27,15.5Z"/>
    <path class="st0" d="M180.24,166.12c-.7-1.35-1.62-2.23-3.24-3.14,3.9-1.54,5.56-5.98,3.44-9.68-1.27-1.37-3.01-2.21-4.93-2.23l-9.89-.1v23.83h3.58s-.21-10.01-.21-10.01c3.77-.15,6.69-.49,8.28,2.56l2.83,7.45,3.7.03-3.56-8.71ZM175.04,161.73c-2.09.63-4.16.65-6.19.52l-.06-8.5c4.33-.65,8.96-.38,9.28,3.56.16,1.98-.85,3.76-3.03,4.43Z"/>
    <polygon class="st0" points="205.32 171.92 205.12 174.81 190.31 174.81 190.31 150.99 204.25 150.99 204.12 153.93 193.55 153.66 193.64 161.02 202.35 160.84 202.34 163.7 193.61 163.63 193.75 172.18 205.32 171.92"/>
    <path class="st0" d="M131.08,171.88l-.19,2.77c-1.88.73-3.82.56-5.77.62-6.71.21-11.66-4.62-11.93-11.26-.25-5.99,3.31-11.58,9.28-13.09,2.41-.61,4.91-.44,7.36-.05l-.48,2.93c-4.61-1.25-9.13-.6-11.37,3.46-1.7,3.08-1.92,6.81-.33,10.11,2.57,5.29,7.96,6.06,13.44,4.51Z"/>
    <path class="st0" d="M103.37,153.23h.46l-1.69-3.07-8.55.05s-.11-.05-.17-.05l-32.19.16-27.02.23,1.16,2.72,14.81.04.03,4.25c-2.88-.66-5.57-.98-8.22-.38-3.57.8-5.37,3.97-4.49,7.45.63,2.52,2.59,4.47,4.63,5.17,2.89,1,5.61.63,8.05-1.29v7.17c.9.41,1.87.81,2.98.95l.25-10.79c1.38-2.89,6.1-5.7,7.64-3.72,1.55,1.98-1.28,6.37-3.56,8.94l2.88,2.15c1.73-2.11,3.26-4.41,3.62-7.11.37-2.89-.87-5.8-3.52-6.99-2.21-.98-4.65-.31-6.52,1.11-.38.3-.85-.3-.85-.7v-6.16l6.3-.09h26.22v4.15c-2.45.27-4.61.87-6.69,2.22-1.57-1.26-3.14-2.19-5.11-2.35-3.05-.26-5.75,1.37-6.48,4.45-1.41,6.01,3.4,11.57,8.51,14.86l2.08-3.1c-3.94-1.85-8.29-4.25-7.83-8.87.17-1.72,1.36-3.14,2.64-3.72,1.58-.73,3.4-.52,4.73.22-1.05,1.52-1.74,2.94-1.86,4.59l2.78,1.65c1.18-4.12,2.88-6.16,7.27-6.77l-.17,15.01c.95.51,1.91.85,3.21,1.02l-.1-23.27,7.01-.04v22.41c.96.4,1.8.74,3.1.93l-.06-23.27,4.69-.1s0-.04-.02-.05ZM41.21,166.7c-.69-.77-.97-1.88-.75-2.98.8-3.95,5.54-4.92,9.84-3.85l.12,3.85c-2.38,3.15-7.33,5.07-9.21,2.98Z"/>
  </g>
  <g>
    <path class="st0" d="M163.17,196.72c-.8.27-1.28.07-1.62-.4l-5.36-7.34c-.61,2.93-.17,5.27-.18,7.82h-1.54s0-11.15,0-11.15h1.73s5.4,7.88,5.4,7.88l.02-7.9h1.57s0,11.09,0,11.09Z"/>
    <path class="st0" d="M148.81,191.22c0,3.1-2.52,5.62-5.62,5.62s-5.62-2.52-5.62-5.62,2.52-5.62,5.62-5.62,5.62,2.52,5.62,5.62ZM146.01,194.11c1.17-1.78,1.16-4.14,0-5.77-.74-1.05-1.86-1.58-2.99-1.54-1.02.03-2.02.56-2.68,1.56-1.2,1.8-1.19,4.31.19,6.01.71.88,1.78,1.31,2.78,1.29s2.02-.5,2.7-1.54Z"/>
    <path class="st0" d="M83.51,196.81c-.58-1.36-.74-3.03-1.82-4.17-.76-.8-2.25-.69-3.32-.62l.14,4.79-1.77-.03v-11.15s5.11.06,5.11.06c1.34.01,2.16,1.09,2.36,2.15.24,1.28-.65,2.42-1.52,3.29,1.07,1.73,2.09,3.62,2.57,5.66l-1.74.02ZM82.56,188.86c.04-.69-.23-1.47-1.02-1.78-1-.4-2.07-.38-3.23-.17l.03,3.98c2.32.12,4.12-.28,4.22-2.02Z"/>
    <path class="st0" d="M110.01,193.31l-4.83-.11c-.57,1.14-.85,2.26-1.1,3.54-.56.09-1.18.12-1.94.02l4.46-11.12h2.11s4.3,11.16,4.3,11.16l-1.99-.03-1.01-3.45ZM109.49,192.01l-2.01-4.89-2,4.94,4.01-.05Z"/>
    <path class="st0" d="M96.53,191.67l-4.02-.02v3.81s5.54,0,5.54,0c.1.39-.04,1.31-.35,1.31l-6.82.04v-11.17s6.62-.04,6.62-.04v1.46s-4.95-.03-4.95-.03c-.16,1.23-.13,2.16,0,3.31l4.02-.04-.03,1.38Z"/>
    <path class="st0" d="M176.67,194.16c-.34,3.03-3.91,3.15-7.41,2.55-.04-.59.05-1.04.22-1.53,2.61.72,5.44.66,5.66-.91.07-.53-.19-1.22-.79-1.53l-3.55-1.84c-1.17-.61-1.7-1.88-1.46-3.05.55-2.7,3.44-2.58,6.59-2.22l-.16,1.57c-2.47-.63-4.78-.71-4.97.78-.08.61.26,1.15.91,1.48l3.58,1.79c1.07.54,1.49,1.84,1.37,2.91Z"/>
    <path class="st0" d="M67.17,195.36c1.37.48,2.66.22,3.94.04l-.1,1.36c-1.85.27-3.91.48-5.63-.46-2.68-1.48-3.3-4.84-2.2-7.35,1.25-2.87,4.19-3.97,7.29-3.3.08.48.02,1.01-.19,1.47-1.42-.47-2.87-.52-4.07.26-1.41.93-2.01,2.56-1.86,4.2.14,1.48,1,3.15,2.82,3.79Z"/>
    <path class="st0" d="M121.56,196.75l-1.8.03.11-9.91h-3.62s-.02-1.27-.02-1.27l8.76.03c.01.38.03.84-.1,1.25l-3.49-.03.16,9.9Z"/>
    <path class="st0" d="M132,196.71c-.72.17-1.32.08-1.86.07v-11.11s1.83-.04,1.83-.04l.03,11.09Z"/>
  </g>
  <g>
    <path class="st0" d="M206.78,63.35c-.06-12.84-5.77-24.87-15.52-33.23-10.15-8.7-23.59-12.28-36.62-10.12-11.4,1.77-21.64,8.04-28.62,17.27l-.04.43c0,.19-.43.29-.58,0-.08-.14,0-.36.19-.52l-.02-25.79V0h-8.23v37.55c.13.06.19.1.22.21.08.26-.22.55-.46.39-.16-.1-.24-.34-.15-.59-8.22-11.16-21.27-17.96-35.23-18.17-21.91-.55-41.06,14.9-45.04,36.4-2.52,14.02,1.68,28.2,11.38,38.41,19.39,20.41,52.56,18.33,69.2-4.56l.08,38.49,8.22,10.57.1-48.71c3.53,4.38,7.19,8.07,11.85,11.03l8.5-4.66c-10.9-5.32-18.36-15.12-20.4-26.86v-12.01c3.5-20.69,23.53-34.01,43.8-29.7,18.28,3.96,31.06,21.13,28.69,40.23l8.68-4.67ZM80.7,99.96c-20.17,0-36.53-16.36-36.53-36.52s16.36-36.52,36.53-36.52,36.54,16.35,36.54,36.52-16.36,36.52-36.54,36.52Z"/>
    <path class="st0" d="M117.57,37.76c.08.26-.22.55-.46.39-.16-.1-.24-.34-.15-.59h.38c.14.05.2.1.23.2Z"/>
    <path class="st0" d="M126.03,37.27l-.04.43c0,.19-.43.29-.58,0-.08-.14,0-.36.19-.52l.43.09Z"/>
  </g>
</svg>