<?xml version="1.0" encoding="UTF-8"?>
<svg id="Layer_1" data-name="Layer 1" xmlns="http://www.w3.org/2000/svg" viewBox="0 0 552.15 454.13">
  <defs>
    <style>
      .cls-1 {
        fill: #fff;
      }

      .cls-1, .cls-2, .cls-3, .cls-4, .cls-5, .cls-6, .cls-7 {
        fill-rule: evenodd;
      }

      .cls-2 {
        fill: #414142;
      }

      .cls-3 {
        fill: #f26336;
      }

      .cls-4 {
        fill: #164373;
      }

      .cls-5 {
        fill: #1a2657;
      }

      .cls-6 {
        fill: #00a04e;
      }

      .cls-7 {
        fill: #f57e20;
      }
    </style>
  </defs>
  <path class="cls-5" d="M0,336.95l10-14.15c6.01,6.29,15.33,11.66,27.1,11.66,10.08,0,14.83-4.48,14.83-9.43,0-14.89-49.09-4.46-49.09-36.61,0-14.14,12.28-25.94,32.36-25.94,13.51,0,24.76,4.04,33.19,11.84l-10.14,13.54c-6.85-6.32-16.06-9.29-24.75-9.29-7.69,0-11.97,3.26-11.97,8.45,0,13.38,48.89,4.35,48.89,36.12,0,15.68-11.24,27.37-34.1,27.37-16.48,0-28.21-5.54-36.31-13.55h0Z"/>
  <polygon class="cls-5" points="122.2 348.96 105.85 325.24 98.46 333.14 98.46 348.96 82.19 348.96 82.19 263.77 98.46 263.77 98.46 314.71 121.82 287.3 141.73 287.3 117.32 315.26 142.49 348.96 122.2 348.96 122.2 348.96"/>
  <polygon class="cls-5" points="280.95 348.96 280.95 263.77 299.09 263.77 299.09 348.96 280.95 348.96 280.95 348.96"/>
  <path class="cls-5" d="M357.22,348.96v-37.25c0-8.53-4.48-11.62-11.32-11.62-6.43,0-11.28,3.75-14.1,7.23v41.64h-16.24v-61.67h16.24v7.9c3.9-4.62,11.61-9.46,21.64-9.46,13.62,0,20.17,7.64,20.17,19.63v43.6h-16.39Z"/>
  <path class="cls-5" d="M431.99,329.09v-21.86c-2.73-4.05-8.53-7.14-13.9-7.14-9.35,0-15.7,7.44-15.7,17.99s6.36,18.06,15.7,18.06c5.37,0,11.17-3,13.9-7.05h0ZM431.99,348.96h0v-7.94c-4.89,6.24-11.47,9.48-19.04,9.48-15.43,0-27.39-11.69-27.39-32.42s11.66-32.35,27.39-32.35c7.28,0,14.14,2.98,19.04,9.46v-31.42h16.3v85.19h-16.3Z"/>
  <path class="cls-5" d="M464.46,348.96v-61.67h16.28v61.67h-16.28ZM462.92,270.89h0c0-5.36,4.41-9.61,9.62-9.61s9.7,4.25,9.7,9.61-4.38,9.71-9.7,9.71-9.62-4.32-9.62-9.71h0Z"/>
  <path class="cls-5" d="M533.83,334.14v-7.72c-2.62-3.54-7.77-5.39-12.99-5.39-6.41,0-11.65,3.4-11.65,9.31s5.24,9.16,11.65,9.16c5.22,0,10.36-1.78,12.99-5.36h0ZM533.83,348.96h0v-6.48c-4.22,5.18-11.53,8.03-19.54,8.03-9.8,0-21.34-6.64-21.34-20.42,0-14.62,11.53-19.95,21.34-19.95,8.32,0,15.51,2.7,19.54,7.62v-7.81c0-6.28-5.41-10.43-13.49-10.43-6.62,0-12.69,2.57-17.75,7.23l-6.38-11.3c7.49-6.78,17.2-9.72,26.92-9.72,14.14,0,27.07,5.64,27.07,23.42v39.81h-16.37Z"/>
  <polygon class="cls-7" points="158.81 272.49 146.8 288.71 150.66 288.71 150.66 348.96 166.88 348.96 166.88 288.71 170.81 288.71 158.81 272.49 158.81 272.49"/>
  <polygon class="cls-6" points="191.14 249.97 179.17 266.39 183.03 266.39 183.03 348.96 199.29 348.96 199.29 266.39 203.15 266.39 191.14 249.97 191.14 249.97"/>
  <polygon class="cls-5" points="223.46 249.97 211.5 266.39 215.38 266.39 215.38 348.96 231.6 348.96 231.6 266.39 235.51 266.39 223.46 249.97 223.46 249.97"/>
  <path class="cls-2" d="M33.23,410.37c-2.88,0-4.81,2.23-4.81,4.99v15.73h-7.76v-7.72h-.24c-1.05.82-3,2.07-6.11,2.07-5.79,0-10.48-4.22-10.48-10.78,0-7.78,6.31-11.56,12.84-10.89l1.3,6.77c-3.66-.88-6.44.93-6.44,4.26,0,2.47,1.91,4.21,4.47,4.21,2.82,0,4.65-2.24,4.65-5.13v-14.14H.59v-6h47.76v6h-19.93v6.44h.22c1.23-1.16,3.36-2.21,6.1-2.21,5.75,0,10.42,4.19,10.42,10.66,0,7.78-6.27,11.56-12.82,11.04l-1.27-6.74c3.75.8,6.34-1.15,6.34-4.48,0-2.48-1.69-4.1-4.19-4.1h0Z"/>
  <path class="cls-2" d="M58.24,399.76v31.34h-7.96v-31.34h-5.8v-6h2.65v-.34c-5.11-2.1-11.11-6.2-16.66-11.43l6.73-4.2,15.3,15.97h.38l-9.46-14.62,8.46-1.84,6.17,16.46h6.04v6h-5.84Z"/>
  <path class="cls-2" d="M92.93,393.75h13.77v6h-5.85v31.34h-7.92v-37.35h0ZM71.77,409.92h0c-3.79-.99-5.78-3.94-5.78-7.65,0-4.88,4.39-9.09,10.44-9.09,8.32,0,12.08,5.55,12.08,11.31,0,9.02-7.17,13.27-13.69,13.49v.23c1.78.9,4.52,2.71,7.23,5.23l5.21,4.64-6.49,4.5-13.69-12.59-4.76-3.49,4.44-5.82c1.85.97,3.99,1.28,5.7,1.28,4.85,0,8.09-2.76,8.09-7.4,0-3.4-1.72-5.12-3.77-5.12s-3,1.28-3,2.61c0,1.46.89,2.79,2.61,3.35l-4.6,4.52h0Z"/>
  <path class="cls-2" d="M133.47,405.58v-5.83h-30.65v-6h44.41v6h-5.81v31.34h-7.94v-19.24c-.53-.38-1.72-.86-2.7-.86-2.24,0-3.21,1.55-3.21,4.49v5.19h-7.16v-5.63c0-2.5-1.22-3.96-3.13-3.96-1.47,0-3.32,1.01-3.32,4.91,0,3.4,1.85,7.77,8,11.04l-4.97,5.12c-6.82-3.44-10.87-9.72-10.87-16.57,0-7.6,5.26-11.05,10.31-11.05,3.47,0,5.97,1.42,7.1,4.13h.21c.71-3.06,3.23-4.39,5.44-4.39,1.37,0,3.05.26,4.08,1.29h.21Z"/>
  <path class="cls-2" d="M178.68,393.75h18.17v6h-5.86v31.34h-7.74v-15.3h-9.37v5.97h-7.2c-3.32-2.42-4.49-6.85-4.49-9.51l4.28-3.21v-6.33c0-2.18-1.03-2.97-2.94-2.97h-3.82v-6h5.32c3.78,0,9.11,1.44,9.11,8.52v6.66h9.11v-9.17h-4.57v-6h0Z"/>
  <polygon class="cls-2" points="206.74 399.76 206.74 431.1 198.85 431.1 198.85 399.76 192.91 399.76 192.91 393.75 212.52 393.75 212.52 399.76 206.74 399.76 206.74 399.76"/>
  <path class="cls-2" d="M223.36,416.91c1.24,1.09,2.3,2.28,4.59,4.93l5.1,6.12-6.43,4.02-16.07-19.88,5.92-4.56c1.65,2.45,2.89,3.36,4.51,3.36,1.24,0,2.27-.67,2.27-2.73v-8.43h-14.61v-6h27.96v6h-5.56v8.6c0,5.45-3.26,7.71-7.13,8.18-.15,0-.3.09-.55.09v.29h0Z"/>
  <path class="cls-2" d="M245.55,431.85c-4.26-2.93-8.89-8.46-8.89-15.83,0-8.15,6.13-11.17,11.55-11.17h6.97v-5.09h-22.54v-6h36.32v6h-5.93v31.34h-7.84v-19.61h-5.56c-2.62,0-4.87,1.43-4.87,4.76,0,4.25,2.45,7.94,6.41,10.66l-5.6,4.93h0Z"/>
  <path class="cls-2" d="M332.1,410.37c-2.93,0-4.79,2.23-4.79,4.99v15.73h-7.83v-7.72h-.21c-1.08.82-2.96,2.07-6.09,2.07-5.81,0-10.52-4.22-10.52-10.78,0-7.78,6.3-11.56,12.94-10.89l1.21,6.77c-3.63-.88-6.4.93-6.4,4.26,0,2.47,1.87,4.21,4.4,4.21,2.89,0,4.68-2.24,4.68-5.13v-14.14h-17.72v-6h45.5v6h-19.95v6.44h.18c1.28-1.16,3.42-2.21,6.11-2.21,5.72,0,10.41,4.19,10.41,10.66,0,7.78-6.25,11.56-12.86,11.04l-1.14-6.74c3.66.8,6.27-1.15,6.27-4.48,0-2.48-1.74-4.1-4.17-4.1h0Z"/>
  <path class="cls-2" d="M376.14,393.75h13.66v6h-5.78v31.34h-7.88v-37.35h0ZM354.98,409.92h0c-3.78-.99-5.76-3.94-5.76-7.65,0-4.88,4.44-9.09,10.37-9.09,8.33,0,12.02,5.55,12.02,11.31,0,9.02-7.11,13.27-13.66,13.49v.23c1.76.9,4.6,2.71,7.34,5.23l5.14,4.64-6.49,4.5-13.71-12.59-4.68-3.49,4.4-5.82c1.91.97,4.02,1.28,5.74,1.28,4.75,0,7.99-2.76,7.99-7.4,0-3.4-1.66-5.12-3.72-5.12s-3.02,1.28-3.02,2.61c0,1.46.99,2.79,2.65,3.35l-4.61,4.52h0Z"/>
  <path class="cls-2" d="M416.62,405.58v-5.83h-30.64v-6h44.45v6h-5.91v31.34h-7.9v-19.24c-.47-.38-1.67-.86-2.61-.86-2.3,0-3.28,1.55-3.28,4.49v5.19h-7.2v-5.63c0-2.5-1.24-3.96-3.07-3.96-1.54,0-3.38,1.01-3.38,4.91,0,3.4,1.84,7.77,8.02,11.04l-5.02,5.12c-6.69-3.44-10.78-9.72-10.78-16.57,0-7.6,5.28-11.05,10.4-11.05,3.36,0,5.94,1.42,7.04,4.13h.23c.65-3.06,3.19-4.39,5.38-4.39,1.35,0,3.11.26,4.1,1.29h.17Z"/>
  <path class="cls-2" d="M461.85,393.75h18.19v6h-5.85v31.34h-7.75v-15.3h-9.34v5.97h-7.22c-3.32-2.42-4.47-6.85-4.47-9.51l4.25-3.21v-6.33c0-2.18-1.04-2.97-3-2.97h-5.07v-6h6.65c3.85,0,9.14,1.44,9.14,8.52v6.66h9.06v-9.17h-4.59v-6h0Z"/>
  <polygon class="cls-2" points="489.9 399.76 489.9 431.1 481.97 431.1 481.97 399.76 476.18 399.76 476.18 393.75 495.72 393.75 495.72 399.76 489.9 399.76 489.9 399.76"/>
  <path class="cls-2" d="M506.59,416.91c1.16,1.09,2.28,2.28,4.53,4.93l5.08,6.12-6.38,4.02-16.11-19.88,5.9-4.56c1.72,2.45,2.87,3.36,4.48,3.36,1.33,0,2.28-.67,2.28-2.73v-8.43h-14.62v-6h27.97v6h-5.44v8.6c0,5.45-3.28,7.71-7.15,8.18-.22,0-.4.09-.54.09v.29h0Z"/>
  <path class="cls-2" d="M528.74,431.85c-4.2-2.93-8.86-8.46-8.86-15.83,0-8.15,6.09-11.17,11.54-11.17h6.95v-5.09h-22.53v-6h36.31v6h-5.94v31.34h-7.84v-19.61h-5.57c-2.65,0-4.9,1.43-4.9,4.76,0,4.25,2.51,7.94,6.4,10.66l-5.56,4.93h0Z"/>
  <path class="cls-2" d="M326.53,454.13c-9.23,0-15.75-5.74-18.82-9.73l5.46-5.02c3.6,5.15,7.75,8.65,13.2,8.65,2.52,0,4.93-1.09,4.93-3.83,0-1.78-1.31-2.92-2.98-2.92-1.83,0-3,.91-3.85,2.35l-5.1-4.44c2.13-2.69,4.91-4.15,9.53-4.15,5.71,0,10.12,3.32,10.12,9.08,0,4.95-3.61,10-12.49,10h0Z"/>
  <polygon class="cls-2" points="291.83 417.29 276.34 417.29 276.34 409.47 291.83 409.47 291.83 417.29 291.83 417.29"/>
  <path class="cls-1" d="M244.97,101.64c-6.36,0-6.36-9.78,0-9.78s6.32,9.78,0,9.78h0ZM358.67,4.49h-165.14c-3.3,0-5.95,2.66-5.95,5.94v139.92c0,3.26,2.65,5.96,5.95,5.96h165.14c3.25,0,5.93-2.7,5.93-5.96V10.43c0-3.27-2.68-5.94-5.93-5.94h0Z"/>
  <path class="cls-5" d="M244.97,101.64c-6.36,0-6.36-9.78,0-9.78s6.32,9.78,0,9.78h0ZM275.51,25.28h0c-32.17,0-58.21,26.07-58.21,58.23s26.04,58.2,58.21,58.2,58.2-26.06,58.2-58.2-26.08-58.23-58.2-58.23h0Z"/>
  <path class="cls-7" d="M293.66,58.84l7.02-7.94,2.04-2.35c5.13,2.17,10.66,1.29,14.91-3.56,4.25-4.82,5.42-11.57,3.62-17.48l-8.45,9.58-8.5-2.24-2.5-9.02,8.43-9.56c-5.53-1.7-11.78-.06-16.01,4.77-4.24,4.86-4.72,10.87-2.48,16.24l.33-.37-11.71,13.33,13.3,8.59h0Z"/>
  <path class="cls-4" d="M294.32,59.44l-1.25-1.21,9.39-10.78.55.26c5.16,2.12,10.26.89,14.02-3.33,3.54-4.05,4.94-9.73,3.78-15.11l-7.74,8.86-9.44-2.45-2.78-10.06,7.76-8.82c-5.05-.99-10.16.86-13.75,4.87-3.73,4.27-4.59,9.83-2.33,15.28l-.27.14.46.45-1.24,1.45h0s-10.51,11.92-10.51,11.92l-1.23-1.28,10.98-12.5c-2.25-5.97-1.22-12.03,2.92-16.7,4.3-4.92,10.74-6.85,16.79-5.07l1.41.39-9.07,10.35,2.19,8.01,7.55,1.98,9.04-10.3.47,1.42c2.02,6.42.56,13.49-3.76,18.46-4.12,4.63-9.66,6.09-15.33,3.95l-1.63,1.9-6.97,7.93h0Z"/>
  <path class="cls-7" d="M222.51,127.28c-1.19.49-2.6-.07-3.06-1.3-.49-1.24.09-2.56,1.29-3.1,1.22-.5,2.57.06,3.04,1.32.5,1.18-.07,2.55-1.28,3.08h0ZM234.22,100.99h0l-17.39,18.48s-.05.04-.1.08c-2.69,2.9-2.62,7.46.28,10.19,2.88,2.78,7.38,2.64,10.11-.23.05-.03.1-.03.15-.1l17.33-18.52-10.37-9.9h0Z"/>
  <path class="cls-4" d="M221.62,123.52c-.2,0-.41.02-.58.1-.38.15-.68.45-.86.84-.13.36-.13.85,0,1.22.35.78,1.25,1.18,2.01.86.84-.37,1.19-1.23.88-2.05-.24-.59-.8-.96-1.45-.96h0ZM221.62,128.27h0c-1.31,0-2.43-.82-2.9-1.99-.36-.77-.33-1.67,0-2.44.32-.76.94-1.4,1.72-1.72.4-.18.77-.24,1.18-.24,1.32,0,2.45.77,2.92,2.01.67,1.63-.12,3.48-1.72,4.13-.42.17-.77.25-1.21.25h0ZM216.89,120.64h0l.45-.57,16.88-17.98,9.22,8.9-16.78,17.82s-.06.09-.15.11c-1.17,1.3-2.85,2-4.54,2s-3.21-.59-4.4-1.79c-2.38-2.23-2.63-5.96-.67-8.5h0ZM221.97,132.54h0c-2.08,0-4.03-.79-5.51-2.21-3.18-3.02-3.31-8.09-.3-11.33l.08-.09,17.95-19.12,11.51,11.05-17.85,19.08c-.11.07-.13.12-.13.12-1.55,1.67-3.6,2.5-5.76,2.5h0Z"/>
  <path class="cls-6" d="M331.08,50.24l-130.44,50.38,4.31,11.49,35.68-13.76c-.3-2.71,1.37-5.62,4.87-5.52,1.82.07,3.13.94,3.88,2.15l86.08-33.21,8.33-9.88-12.71-1.65h0Z"/>
  <path class="cls-5" d="M244.97,101.64c-6.36,0-6.36-9.78,0-9.78s6.32,9.78,0,9.78h0ZM293.26,60.01h0l-20.41-12.32-17.47,7.97-13.14,6.05-16.01,27.08,10.75,11.12,13.19,13.67,48.1-38.03c.32-12.34-5.01-15.54-5.01-15.54h0Z"/>
  <polygon class="cls-5" points="338.73 51.02 340.49 55.04 343.22 51.4 338.73 51.02 338.73 51.02"/>
  <path class="cls-4" d="M330.81,49.36l-131.32,51.34,5.49,12.6,34.62-13.16c-.25-.61-1.7-1.03-1.7-1.67l-31.83,12.42-3.98-9.16,128.99-50.46,10.79,1.1-6.8,8.08-86.39,33.79c.44.5,1.07.71,1.27,1.33l86.32-33.61,9.38-11.14-14.84-1.45h0Z"/>
  <polygon class="cls-1" points="339.39 52.08 331.08 51.27 335.07 60.45 340.34 54.16 339.39 52.08 339.39 52.08"/>
  <polygon class="cls-3" points="331.08 51.27 335.07 60.45 331.08 51.27 331.08 51.27"/>
  <polygon class="cls-4" points="334.09 60.84 330.12 51.64 332.08 50.9 336 60.09 334.09 60.84 334.09 60.84"/>
  <path class="cls-5" d="M358.5,213.97l-1.38-2.66h7.35l1.58,2.66h-7.55ZM353.7,204.44h6.79l1.55,2.66h-7.04l-1.3-2.66h0ZM344.04,213.97h0l-1.03-2.66h7.45l1.27,2.66h-7.69ZM340.3,204.44h6.89l1.31,2.66h-7.17l-1.03-2.66h0ZM337.5,197.32h6.35l1.26,2.69h-6.56l-1.04-2.69h0ZM329.62,213.97h0l-.75-2.66h7.57l.93,2.66h-7.75ZM326.91,204.44h7.03l.96,2.66h-7.23l-.75-2.66h0ZM324.85,197.32h6.49l.93,2.69h-6.67l-.75-2.69h0ZM315.2,213.97h0l-.48-2.66h7.63l.74,2.66h-7.89ZM300.81,213.97h0l-.2-2.66h7.7l.4,2.66h-7.89ZM300.14,204.44h13.37l-1.24-7.12h6.52l2.55,9.78h-20.99l-.21-2.66h0ZM299.62,197.32h0l.21,2.69h6.79l-.4-2.69h-6.6ZM229.06,213.97h0l1.23-2.66h63.94l.12,2.66h-65.29ZM225.7,207.1h-7.03l1.55-2.66h6.79l-1.32,2.66h0ZM222.31,213.97h-7.55l1.55-2.66h7.35l-1.34,2.66h0ZM212.01,207.1h-6.89l1.8-2.66h6.67l-1.58,2.66h0ZM207.87,213.97h-7.41l1.81-2.66h7.21l-1.61,2.66h0ZM198.26,207.1h-6.69l2.11-2.66h6.49l-1.91,2.66h0ZM193.4,213.97h-7.22l2.1-2.66h7.03l-1.91,2.66h0ZM199.29,197.32h5.9l-1.88,2.69h-6.14l2.12-2.69h0ZM211.78,197.32h6.12l-1.63,2.69h-6.31l1.82-2.69h0ZM224.29,197.32h6.25l-1.33,2.69h-6.45l1.54-2.69h0ZM233.49,204.44h6.93l-1.02,2.66h-7.12l1.21-2.66h0ZM236.83,197.32h6.36l-1.06,2.69h-6.56l1.26-2.69h0ZM246.81,204.44h7.02l-.75,2.66h-7.22l.95-2.66h0ZM249.34,197.32h6.48l-.77,2.69h-6.64l.93-2.69h0ZM260.11,204.44h7.11l-.46,2.66h-7.32l.67-2.66h0ZM261.92,197.32h6.5l-.44,2.69h-6.75l.69-2.69h0ZM273.45,204.44h7.15l-.18,2.66h-7.38l.41-2.66h0ZM274.45,197.32h6.6l-.17,2.69h-6.79l.35-2.69h0ZM286.79,204.44h7.15l.1,2.66h-7.32l.07-2.66h0ZM287.04,197.32h6.62l.1,2.69h-6.8l.07-2.69h0ZM356.35,197.32h0l1.57,2.69h-6.43l-1.33-2.69h6.18ZM361.56,195.05h0c-.52-.73-1.36-1.17-2.23-1.17h-163.78c-.8,0-1.57.37-2.09,1l-16.35,19.38c-.7.82-.85,1.95-.42,2.96.48.96,1.43,1.56,2.49,1.56l193.81-.03c.98,0,1.92-.57,2.4-1.45.47-.89.41-2.02-.19-2.81l-13.64-19.43h0Z"/>
  <path class="cls-5" d="M240.12,185.36c-2.63,2.61,1.47,4.11,1.47,4.11h68.25s4.15-1.5,1.52-4.11c-2.65-2.62-9.76-4.52-10.51-15.8-.06-.84-.02-4.38,0-8.96h-50.25c0,4.58.06,8.12,0,8.96-.73,11.28-7.9,13.17-10.47,15.8h0Z"/>
  <path class="cls-5" d="M194.65,5.53c-3.23,0-5.86,2.66-5.86,5.85v137.99c0,3.27,2.63,5.86,5.86,5.86h162.84c3.22,0,5.87-2.58,5.87-5.86V11.39c0-3.2-2.65-5.85-5.87-5.85h-162.84ZM357.49,160.83h-162.84c-6.28,0-11.4-5.15-11.4-11.45V11.39c0-6.28,5.12-11.39,11.4-11.39h162.84c6.31,0,11.41,5.1,11.41,11.39v137.99c0,6.3-5.09,11.45-11.41,11.45h0Z"/>
  <path class="cls-5" d="M194.65,5.53c-3.23,0-5.86,2.66-5.86,5.85v137.99c0,3.27,2.63,5.86,5.86,5.86h162.84c3.22,0,5.87-2.58,5.87-5.86V11.39c0-3.2-2.65-5.85-5.87-5.85h-162.84ZM357.49,160.83h-162.84c-6.28,0-11.4-5.15-11.4-11.45V11.39c0-6.28,5.12-11.39,11.4-11.39h162.84c6.31,0,11.41,5.1,11.41,11.39v137.99c0,6.3-5.09,11.45-11.41,11.45h0Z"/>
  <polygon class="cls-1" points="243.89 83.01 244.32 83.72 243.89 83.01 243.89 83.01"/>
  <path class="cls-1" d="M327.45,155.02c.63-.6-1.17-.66-.51-1.34-.53-.61-23.55,1.4-23.88,1.03-8.17-8.23,5.08,5.2-3-3.06-8.9-9.04-17.77-18.08-26.74-27.1-.68-.66-1.9-.98-2.94-1.28-2.75-.82-5.71-1.18-8.25-2.44-2.26-1.17-4.03-3.28-5.96-5.05-2.38-2.17-4.65-4.48-6.96-6.64,3.01-3.1,6.88-5.11,7.59-9.63.02-.32.53-.49.81-.74,1.35-1.01,2.69-1.95,3.97-3.09,2.04-1.79,3.66-3.81,3.21-6.85-.06-.34.42-.84.7-1.19,2.23-2.32,4.46-4.6,6.6-6.83,1.5-.25,3.01-.49,4.59-.73-.24.89-.31,1.9-.82,2.74-1.43,2.45-.79,4.87.35,7.03,2.24,4.28,4.8,8.39,7.31,12.47.43.7,1.53.99,2.34,1.47-.08-.86.21-1.92-.18-2.61-1.99-3.57-4.12-6.98-6.11-10.54-1.17-1.95-2.62-3.92-1.67-6.41,1.07-2.72,2.27-5.43,3.54-8.12,2.31-4.82,2.37-4.82-1.75-8.43-.15-.18-.33-.3-.53-.47-1.57-1.62-3.34-1.65-5.26-.73-1.74.9-3.59,1.74-5.37,2.65-2.2,1.12-4.14.78-5.83-.98-.86-.77-1.71-1.56-2.52-2.36-1.5-1.37-1.26-2.65.16-3.89,3.96-3.29,7.89-6.55,11.86-9.77,1.61-1.33,3.23-1.43,5.04-.21,5.06,3.39,10.13,6.69,15.21,9.95,1.98,1.32,3.14,2.95,3.37,5.41.78,6.69,1.27,13.41,2.45,20.03,1.16,6.36-.37,11.78-3.96,16.85-.68,1.03-1.31,2.04-2.15,2.99-1.3,1.33-.86,2.34.35,3.43,4.77,4.3,9.45,8.62,14.15,12.9,6.91,6.34,13.82,12.6,20.75,18.91.6.52,1.27,1,1.89,1.5-.51-1.24-1.3-2.11-2.19-2.95-9.52-9.38-19.13-18.69-28.68-28.02-1.36-1.28-3.55-2.61-3.78-4.13-.22-1.45,1.62-3.26,2.5-4.89.9-1.64,1.66-3.24,2.53-4.92.25-.48.65-.97,1.04-1.61,18.24,16.43,41.69,36.78,59.97,53.15l-33.26,4.49h0Z"/>
  <path class="cls-1" d="M247.08,88.84c2.32,2.25,4.66,4.5,6.97,6.7,1.73,1.61,2.64,1.51,4.2-.22,1.03-1.11,2.05-2.28,3.18-3.29,1.52-1.39,1.29-2.75.07-3.95-4.76-4.69-9.57-9.28-14.45-13.84-1.25-1.18-2.62-1.12-3.83.13-1.14,1.16-2.22,2.36-3.34,3.49-1.38,1.42-1.38,2.77.08,4.14,2.39,2.22,4.75,4.53,7.12,6.82h0Z"/>
  <path class="cls-1" d="M254.11,77.84c2.37,2.26,4.83,4.49,7.14,6.83,1.47,1.44,2.78,1.37,4.13-.06,1.08-1.09,2.16-2.24,3.19-3.3,1.3-1.37,1.35-2.81.08-4.09-4.69-4.62-9.45-9.2-14.26-13.75-1.37-1.28-2.89-1.25-4.23.27-1.1,1.19-2.22,2.29-3.33,3.48-1.22,1.28-1.22,2.56.1,3.78,2.44,2.22,4.79,4.51,7.17,6.83h0Z"/>
  <path class="cls-1" d="M247.32,92.45c-.23-.28-.42-.62-.67-.83.03-.1-.03.04-.03.04-1.83-1.88-3.71-3.68-5.61-5.47-2.28-2.16-3.35-2.14-5.52.17-.81.83-1.57,1.73-2.38,2.52-1.5,1.41-1.5,2.81-.07,4.16,4.2,4.12,8.46,8.2,12.78,12.32,1.2,1.11,2.46,1.09,3.6-.06,1.25-1.22,2.34-2.42,3.51-3.62,1.53-1.48,1.14-2.82-.23-4.15-1.26-1.16-2.54-2.39-3.82-3.61l-1.55-1.47h0Z"/>
  <path class="cls-1" d="M266.87,72.4c1.9,1.85,3.62,3.47,5.34,5.07,1.11,1.09,2.25,1.11,3.36-.09,1.23-1.37,2.66-2.62,3.64-4.14.5-.76.68-2.34.18-2.97-.79-1.2-1.73-2.88-3.81-1.94-2.81,1.34-5.65,2.67-8.7,4.08h0Z"/>
  <path class="cls-1" d="M256.44,62.46c2.73-2.36,5.24-4.56,7.72-6.73-.04-.2-.14-.41-.18-.62-.97.21-2.35.05-2.84.64-1.7,1.99-4.71,3.23-4.7,6.7h0Z"/>
</svg>