<?xml version="1.0" encoding="UTF-8"?>
<svg id="Layer_1" xmlns="http://www.w3.org/2000/svg" version="1.1" viewBox="0 0 241 197">
  <!-- Generator: Adobe Illustrator 30.3.0, SVG Export Plug-In . SVG Version: 2.1.3 Build 182)  -->
  <defs>
    <style>
      .st0 {
        fill: #000042;
      }
    </style>
  </defs>
  <path class="st0" d="M240.35,86c-1.94-31.38-27.64-56.14-59.02-57.84-16.83-1.04-33.37,4.77-45.86,16.11-3.5,3.23-6.71,6.76-9.6,10.55.47-4.86.18-13.91.16-19.09-.05-11.89-.03-23.78.09-35.67-3.7-.02-7.82.06-11.48-.06-.2,4.31-.19,8.79-.16,13.12.12,13.77-.16,27.59-.03,41.36-12.12-15.2-25.29-23.83-44.95-26.06-16.63-1.83-33.31,3.07-46.32,13.59C-4,63.83-7.68,104.25,14.27,131.09c10.71,12.93,26.12,21.09,42.84,22.7,8.64.85,16.09-.21,24.34-2.61,13.86-4.04,24.47-12.56,33.02-23.96-.17,11.37.12,23.11.02,34.52-.03,4.45-.26,16.43.26,20.35,3.46,4.73,7.7,10.42,11.47,14.91-.34-6.33-.2-13.48-.2-19.86v-31.38c.01-3.68.29-15.91-.18-18.93,1.04,1.39,2.04,2.74,3.15,4.08,4.85,5.6,8.1,8.75,14.48,12.83,3.62-1.87,7.79-4.14,11.5-5.68-13.42-7.91-22.94-17.53-27.1-32.95-9.5-35.2,17.44-68.56,54.13-65.72,22.58,1.74,40.24,16.94,46.1,38.76,1.69,6.3,1.55,12.44,1.48,18.91,3.53-1.84,7.23-3.85,10.79-5.6.11-1.91.09-3.55-.02-5.46ZM66.12,142.79c-28.57,1.8-53.22-19.86-55.08-48.43-1.86-28.56,19.76-53.24,48.33-55.16,28.64-1.92,53.41,19.77,55.28,48.41,1.86,28.64-19.88,53.36-48.53,55.18Z"/>
</svg>