<?xml version="1.0" encoding="UTF-8"?>
<svg id="Layer_1" xmlns="http://www.w3.org/2000/svg" version="1.1" viewBox="0 0 209.24 135.66">
  <!-- Generator: Adobe Illustrator 30.3.0, SVG Export Plug-In . SVG Version: 2.1.3 Build 182)  -->
  <defs>
    <style>
      .st0, .st1 {
        fill: #000042;
      }

      .st1 {
        font-family: MyanmarSangamMN-Bold, 'Myanmar Sangam MN';
        font-size: 40.19px;
        font-weight: 700;
      }
    </style>
  </defs>
  <g>
    <path class="st0" d="M170.75,47.6c-1.07-17.37-15.3-31.07-32.67-32.02-9.32-.58-18.47,2.64-25.38,8.92-1.94,1.79-3.71,3.74-5.31,5.84.26-2.69.1-7.7.09-10.57-.03-6.58-.02-13.16.05-19.74-2.05-.01-4.33.03-6.35-.03-.11,2.39-.11,4.87-.09,7.26.07,7.62-.09,15.27-.02,22.89-6.71-8.41-14-13.19-24.88-14.42-9.21-1.01-18.44,1.7-25.64,7.52-15.04,12.08-17.08,34.45-4.93,49.31,5.93,7.16,14.46,11.67,23.71,12.56,4.78.47,8.91-.12,13.47-1.44,7.67-2.24,13.54-6.95,18.28-13.26-.09,6.29.07,12.79.01,19.11-.02,2.46-.14,9.09.14,11.26,1.92,2.62,4.26,5.77,6.35,8.25-.19-3.5-.11-7.46-.11-10.99v-17.37c0-2.04.16-8.81-.1-10.48.58.77,1.13,1.52,1.74,2.26,2.68,3.1,4.48,4.84,8.01,7.1,2-1.04,4.31-2.29,6.37-3.14-7.43-4.38-12.7-9.7-15-18.24-5.26-19.48,9.65-37.95,29.96-36.38,12.5.96,22.27,9.38,25.52,21.45.94,3.49.86,6.89.82,10.47,1.95-1.02,4-2.13,5.97-3.1.06-1.06.05-1.97-.01-3.02ZM74.31,79.04c-15.81,1-29.46-10.99-30.49-26.81-1.03-15.81,10.94-29.47,26.75-30.53,15.85-1.06,29.56,10.94,30.6,26.8,1.03,15.85-11,29.54-26.86,30.54Z"/>
    <g>
      <path class="st0" d="M3.25,116.85v8.33l8.32-8.33h4.13l-7.7,7.69,7.9,11.33h-3.87l-6.23-9.11-2.54,2.5v6.61H0v-19.02h3.25Z"/>
      <path class="st0" d="M30.67,135.51c-.26.16-.5.29-.7.38-.2.09-.38.15-.53.19-.15.04-.28.06-.4.07-.11,0-.21,0-.29,0-.34,0-.64-.06-.91-.17-.27-.11-.5-.27-.71-.47-.2-.2-.38-.43-.53-.68s-.27-.53-.36-.82c-.41.43-.8.78-1.17,1.06-.37.28-.73.5-1.08.65-.35.16-.71.27-1.06.33-.35.06-.72.1-1.1.1-.62,0-1.2-.1-1.74-.29s-1.01-.47-1.41-.84c-.4-.36-.72-.8-.95-1.3-.23-.5-.35-1.07-.35-1.7,0-.54.12-1,.36-1.39s.56-.73.95-1.02.85-.54,1.35-.75c.5-.21,1.02-.4,1.54-.57.52-.17,1.04-.33,1.54-.48.5-.15.95-.31,1.35-.48s.71-.36.95-.57c.24-.21.36-.47.36-.77s-.07-.54-.22-.74-.34-.36-.57-.48c-.23-.12-.49-.21-.77-.27-.28-.05-.56-.08-.83-.08s-.56.04-.83.12-.51.2-.74.36c-.22.16-.41.38-.57.63s-.25.57-.3.93h-3.27c.05-.81.24-1.51.59-2.11.35-.6.78-1.09,1.31-1.48s1.12-.68,1.79-.87,1.34-.29,2.02-.29c.74,0,1.44.08,2.12.25.68.16,1.27.42,1.79.78.52.35.93.81,1.23,1.36.3.55.46,1.21.46,1.97v6.76c0,.16.06.33.18.48s.3.24.53.24c.03,0,.12-.01.29-.04.17-.03.39-.12.68-.27v2.26ZM25.79,129.23c-.21.12-.48.23-.82.33-.34.1-.7.2-1.09.3-.39.1-.78.21-1.18.33-.39.12-.75.26-1.07.42s-.58.35-.78.56c-.2.21-.31.47-.31.76s.05.52.14.72c.09.2.21.37.36.5s.32.23.51.29c.19.06.39.09.59.09.63,0,1.26-.21,1.91-.64.65-.43,1.23-1.07,1.75-1.92v-1.73Z"/>
      <path class="st0" d="M35.28,116.85v19.02h-3.22v-19.02h3.22Z"/>
      <path class="st0" d="M50.84,135.51c-.26.16-.5.29-.7.38-.2.09-.38.15-.53.19-.15.04-.28.06-.4.07-.11,0-.21,0-.29,0-.34,0-.64-.06-.91-.17-.27-.11-.5-.27-.71-.47-.2-.2-.38-.43-.53-.68s-.27-.53-.36-.82c-.41.43-.8.78-1.17,1.06-.37.28-.73.5-1.08.65-.35.16-.71.27-1.06.33-.35.06-.72.1-1.1.1-.62,0-1.2-.1-1.74-.29s-1.01-.47-1.41-.84c-.4-.36-.72-.8-.95-1.3-.23-.5-.35-1.07-.35-1.7,0-.54.12-1,.36-1.39s.56-.73.95-1.02.85-.54,1.35-.75c.5-.21,1.02-.4,1.54-.57.52-.17,1.04-.33,1.54-.48.5-.15.95-.31,1.35-.48s.71-.36.95-.57c.24-.21.36-.47.36-.77s-.07-.54-.22-.74-.34-.36-.57-.48c-.23-.12-.49-.21-.77-.27-.28-.05-.56-.08-.83-.08s-.56.04-.83.12-.51.2-.74.36c-.22.16-.41.38-.57.63s-.25.57-.3.93h-3.27c.05-.81.24-1.51.59-2.11.35-.6.78-1.09,1.31-1.48s1.12-.68,1.79-.87,1.34-.29,2.02-.29c.74,0,1.44.08,2.12.25.68.16,1.27.42,1.79.78.52.35.93.81,1.23,1.36.3.55.46,1.21.46,1.97v6.76c0,.16.06.33.18.48s.3.24.53.24c.03,0,.12-.01.29-.04.17-.03.39-.12.68-.27v2.26ZM45.95,129.23c-.21.12-.48.23-.82.33-.34.1-.7.2-1.09.3-.39.1-.78.21-1.18.33-.39.12-.75.26-1.07.42s-.58.35-.78.56c-.2.21-.31.47-.31.76s.05.52.14.72c.09.2.21.37.36.5s.32.23.51.29c.19.06.39.09.59.09.63,0,1.26-.21,1.91-.64.65-.43,1.23-1.07,1.75-1.92v-1.73Z"/>
      <path class="st0" d="M60.5,126.94c-.25-.91-.6-1.57-1.03-1.97-.43-.4-.97-.61-1.63-.61-.49,0-.93.12-1.32.36-.39.24-.72.56-.98.96-.26.4-.47.86-.61,1.39s-.21,1.08-.21,1.65c0,.61.07,1.2.21,1.77s.35,1.08.61,1.53c.27.45.59.81.97,1.08.38.27.8.41,1.27.41.37,0,.71-.08,1-.25.3-.17.55-.4.77-.69.22-.29.4-.62.55-1,.15-.38.26-.78.34-1.21h3.34c-.11.9-.33,1.71-.65,2.42-.33.71-.75,1.32-1.27,1.81-.52.5-1.13.88-1.83,1.14-.7.26-1.48.4-2.33.4-.71,0-1.36-.1-1.94-.29s-1.11-.46-1.57-.8c-.46-.34-.86-.75-1.19-1.22-.34-.47-.62-.98-.84-1.53-.22-.55-.39-1.13-.5-1.73-.11-.6-.16-1.22-.16-1.83,0-1.02.15-1.96.46-2.82.3-.86.73-1.6,1.29-2.22s1.22-1.1,2.01-1.45c.78-.35,1.65-.53,2.62-.53.85,0,1.6.13,2.26.4s1.24.64,1.73,1.1c.49.47.9,1.02,1.21,1.66.32.64.55,1.32.71,2.06h-3.29Z"/>
      <path class="st0" d="M65.25,128.95c0-.98.15-1.91.44-2.79.29-.88.72-1.64,1.27-2.3.56-.66,1.24-1.18,2.05-1.56.81-.38,1.74-.57,2.78-.57s1.96.19,2.77.57,1.5.9,2.06,1.56c.56.66.99,1.43,1.28,2.3.3.88.44,1.81.44,2.79s-.15,1.92-.44,2.8-.71,1.64-1.27,2.29-1.24,1.17-2.05,1.55-1.74.57-2.77.57-1.98-.19-2.79-.57-1.5-.89-2.06-1.55c-.56-.65-.99-1.42-1.28-2.29-.3-.87-.44-1.8-.44-2.8ZM68.5,128.95c0,.62.08,1.2.23,1.75.15.55.37,1.03.65,1.44.29.41.63.73,1.04.97.41.24.87.36,1.38.36s.97-.12,1.38-.36c.41-.24.76-.57,1.05-.97.29-.41.52-.89.68-1.44.16-.55.24-1.13.24-1.75s-.08-1.19-.24-1.74c-.16-.55-.38-1.03-.68-1.45-.29-.41-.64-.74-1.05-.98s-.87-.36-1.38-.36-.97.12-1.38.36-.76.57-1.04.98c-.29.41-.5.9-.65,1.45-.15.55-.23,1.13-.23,1.74Z"/>
      <path class="st0" d="M80.65,121.99h2.37l.53,1.7c.42-.65.85-1.14,1.31-1.47.45-.34.95-.5,1.47-.5.17,0,.44.03.8.1.36.07.79.25,1.3.54v2.77c-.34-.13-.62-.23-.86-.29-.24-.07-.43-.12-.59-.15-.16-.03-.28-.05-.37-.05-.09,0-.15,0-.18,0-.41,0-.77.08-1.09.25s-.59.38-.8.66c-.22.28-.39.6-.5.96-.12.36-.18.75-.18,1.15v8.24h-3.2v-13.88Z"/>
      <path class="st0" d="M92.29,129.79c.05.5.16.98.34,1.43s.42.85.7,1.19c.29.34.62.61.99.81.37.2.78.3,1.21.3.78,0,1.43-.22,1.96-.65.52-.44.94-1.08,1.25-1.94h2.96c-.17.82-.46,1.55-.87,2.2-.4.65-.88,1.19-1.44,1.64-.55.45-1.17.79-1.83,1.02-.67.24-1.35.35-2.05.35-1,0-1.9-.2-2.71-.6-.8-.4-1.49-.94-2.05-1.61-.56-.67-1-1.46-1.3-2.35-.3-.9-.46-1.84-.46-2.83,0-.93.15-1.82.46-2.67s.74-1.6,1.3-2.25,1.25-1.17,2.05-1.55c.8-.38,1.71-.57,2.71-.57s1.84.18,2.62.53,1.45.83,2,1.44c.55.61.97,1.33,1.27,2.15.3.83.44,1.72.44,2.69v1.27h-9.55ZM98.58,127.35c-.05-.44-.15-.83-.33-1.19-.17-.36-.4-.67-.67-.93-.27-.26-.6-.46-.97-.6-.37-.14-.78-.21-1.23-.21-.4,0-.77.08-1.13.24-.35.16-.66.37-.93.63-.27.26-.5.58-.67.93-.18.36-.3.73-.36,1.13h6.29Z"/>
      <path class="st0" d="M113.88,126.1c0,1.31.16,2.44.49,3.4.33.95.75,1.74,1.28,2.37.53.62,1.13,1.08,1.79,1.38.67.3,1.34.45,2.02.45s1.35-.14,1.92-.43c.57-.29,1.08-.66,1.51-1.13s.79-1,1.07-1.6c.28-.6.49-1.22.61-1.85h3.26c-.2,1.07-.53,2.08-.99,3.01-.46.94-1.04,1.75-1.75,2.44-.71.69-1.53,1.23-2.48,1.63s-2,.59-3.16.59c-1.34,0-2.55-.23-3.63-.69-1.09-.46-2.01-1.13-2.77-2.01-.76-.88-1.35-1.96-1.77-3.23-.41-1.27-.62-2.72-.62-4.35,0-.84.09-1.66.27-2.46.18-.8.43-1.57.77-2.28.34-.72.76-1.38,1.26-1.98.5-.6,1.08-1.13,1.72-1.57s1.37-.78,2.16-1.03c.8-.25,1.66-.37,2.58-.37,1.18,0,2.24.17,3.16.5.93.34,1.74.8,2.45,1.4.7.6,1.3,1.3,1.77,2.12.48.82.86,1.71,1.14,2.69h-3.35c-.48-1.36-1.15-2.38-1.99-3.05s-1.9-1-3.18-1c-.82,0-1.57.19-2.25.57s-1.27.89-1.76,1.53c-.49.64-.87,1.39-1.15,2.24-.27.85-.41,1.76-.41,2.73Z"/>
      <path class="st0" d="M130.34,121.99h2.37l.53,1.7c.42-.65.85-1.14,1.31-1.47.45-.34.95-.5,1.47-.5.17,0,.44.03.8.1.36.07.79.25,1.3.54v2.77c-.34-.13-.62-.23-.86-.29-.24-.07-.43-.12-.59-.15-.16-.03-.28-.05-.37-.05-.09,0-.15,0-.18,0-.41,0-.77.08-1.09.25s-.59.38-.8.66c-.22.28-.39.6-.5.96-.12.36-.18.75-.18,1.15v8.24h-3.2v-13.88Z"/>
      <path class="st0" d="M141.98,129.79c.05.5.16.98.34,1.43s.42.85.7,1.19c.29.34.62.61.99.81.37.2.78.3,1.21.3.78,0,1.43-.22,1.96-.65.52-.44.94-1.08,1.25-1.94h2.96c-.17.82-.46,1.55-.87,2.2-.4.65-.88,1.19-1.44,1.64-.55.45-1.17.79-1.83,1.02-.67.24-1.35.35-2.05.35-1,0-1.9-.2-2.71-.6-.8-.4-1.49-.94-2.05-1.61-.56-.67-1-1.46-1.3-2.35-.3-.9-.46-1.84-.46-2.83,0-.93.15-1.82.46-2.67s.74-1.6,1.3-2.25,1.25-1.17,2.05-1.55c.8-.38,1.71-.57,2.71-.57s1.84.18,2.62.53,1.45.83,2,1.44c.55.61.97,1.33,1.27,2.15.3.83.44,1.72.44,2.69v1.27h-9.55ZM148.27,127.35c-.05-.44-.15-.83-.33-1.19-.17-.36-.4-.67-.67-.93-.27-.26-.6-.46-.97-.6-.37-.14-.78-.21-1.23-.21-.4,0-.77.08-1.13.24-.35.16-.66.37-.93.63-.27.26-.5.58-.67.93-.18.36-.3.73-.36,1.13h6.29Z"/>
      <path class="st0" d="M166.45,135.51c-.26.16-.5.29-.7.38-.2.09-.38.15-.53.19-.15.04-.28.06-.4.07-.11,0-.21,0-.29,0-.34,0-.64-.06-.91-.17-.27-.11-.5-.27-.71-.47-.2-.2-.38-.43-.53-.68s-.27-.53-.36-.82c-.41.43-.8.78-1.17,1.06-.37.28-.73.5-1.08.65-.35.16-.71.27-1.06.33-.35.06-.72.1-1.1.1-.62,0-1.2-.1-1.74-.29s-1.01-.47-1.41-.84c-.4-.36-.72-.8-.95-1.3-.23-.5-.35-1.07-.35-1.7,0-.54.12-1,.36-1.39s.56-.73.95-1.02.85-.54,1.35-.75c.5-.21,1.02-.4,1.54-.57.52-.17,1.04-.33,1.54-.48.5-.15.95-.31,1.35-.48s.71-.36.95-.57c.24-.21.36-.47.36-.77s-.07-.54-.22-.74-.34-.36-.57-.48c-.23-.12-.49-.21-.77-.27-.28-.05-.56-.08-.83-.08s-.56.04-.83.12-.51.2-.74.36c-.22.16-.41.38-.57.63s-.25.57-.3.93h-3.27c.05-.81.24-1.51.59-2.11.35-.6.78-1.09,1.31-1.48s1.12-.68,1.79-.87,1.34-.29,2.02-.29c.74,0,1.44.08,2.12.25.68.16,1.27.42,1.79.78.52.35.93.81,1.23,1.36.3.55.46,1.21.46,1.97v6.76c0,.16.06.33.18.48s.3.24.53.24c.03,0,.12-.01.29-.04.17-.03.39-.12.68-.27v2.26ZM161.56,129.23c-.21.12-.48.23-.82.33-.34.1-.7.2-1.09.3-.39.1-.78.21-1.18.33-.39.12-.75.26-1.07.42s-.58.35-.78.56c-.2.21-.31.47-.31.76s.05.52.14.72c.09.2.21.37.36.5s.32.23.51.29c.19.06.39.09.59.09.63,0,1.26-.21,1.91-.64.65-.43,1.23-1.07,1.75-1.92v-1.73Z"/>
      <path class="st0" d="M171.98,118.17v3.82h2.54v2.63h-2.54v7.57c0,.38.09.7.26.95.17.25.42.38.74.38.1,0,.3-.02.6-.05.3-.04.71-.16,1.24-.37v2.55c-.56.21-1.09.34-1.6.4s-.92.09-1.24.09c-.44,0-.85-.09-1.24-.26s-.73-.42-1.03-.74c-.3-.32-.53-.7-.71-1.15-.18-.45-.27-.94-.27-1.49v-7.9h-1.95v-2.63h1.95v-3.82h3.25Z"/>
      <path class="st0" d="M179.77,116.85v3.22h-3.22v-3.22h3.22ZM179.77,121.99v13.88h-3.22v-13.88h3.22Z"/>
      <path class="st0" d="M181.98,128.95c0-.98.15-1.91.44-2.79.29-.88.72-1.64,1.27-2.3.56-.66,1.24-1.18,2.05-1.56.81-.38,1.74-.57,2.78-.57s1.96.19,2.77.57,1.5.9,2.06,1.56c.56.66.99,1.43,1.28,2.3.3.88.44,1.81.44,2.79s-.15,1.92-.44,2.8-.71,1.64-1.27,2.29-1.24,1.17-2.05,1.55-1.74.57-2.77.57-1.98-.19-2.79-.57-1.5-.89-2.06-1.55c-.56-.65-.99-1.42-1.28-2.29-.3-.87-.44-1.8-.44-2.8ZM185.22,128.95c0,.62.08,1.2.23,1.75.15.55.37,1.03.65,1.44.29.41.63.73,1.04.97.41.24.87.36,1.38.36s.97-.12,1.38-.36c.41-.24.76-.57,1.05-.97.29-.41.52-.89.68-1.44.16-.55.24-1.13.24-1.75s-.08-1.19-.24-1.74c-.16-.55-.38-1.03-.68-1.45-.29-.41-.64-.74-1.05-.98s-.87-.36-1.38-.36-.97.12-1.38.36-.76.57-1.04.98c-.29.41-.5.9-.65,1.45-.15.55-.23,1.13-.23,1.74Z"/>
      <path class="st0" d="M197.56,121.99h3.2v1.65c.59-.68,1.22-1.17,1.89-1.47s1.34-.45,2.02-.45,1.34.1,1.9.31,1.04.51,1.43.89c.4.39.7.85.91,1.39.21.54.31,1.14.31,1.81v9.75h-3.25v-9.25c0-.35-.05-.65-.15-.93-.1-.27-.23-.5-.4-.7-.17-.19-.37-.34-.61-.44-.24-.1-.49-.15-.76-.15-.43,0-.84.09-1.23.27-.39.18-.75.42-1.06.72-.31.3-.56.64-.74,1.03-.18.39-.27.78-.27,1.19v8.24h-3.2v-13.88Z"/>
    </g>
  </g>
  <text class="st1" transform="translate(-65.94 394.53)"><tspan x="0" y="0">Kalacore Creation</tspan></text>
</svg>